<?xml version="1.0" standalone="no"?>
<!DOCTYPE svg PUBLIC "-//W3C//DTD SVG 1.1//EN" "http://www.w3.org/Graphics/SVG/1.1/DTD/svg11.dtd" >
<svg>
<metadata>
Created by FontForge 20120731 at Tue Sep 15 16:50:37 2020
 By ffonts
Copyright \(c\) 2020 by MadeType. All rights reserved.
</metadata>
<defs>
<font id="MADEBonVoyage" horiz-adv-x="533" >
  <font-face 
    font-family="MADE Bon Voyage"
    font-weight="400"
    font-stretch="normal"
    units-per-em="1000"
    panose-1="2 0 5 3 0 0 0 2 0 4"
    ascent="800"
    descent="-200"
    x-height="484"
    cap-height="700"
    bbox="-134.122 -438.639 1228 952"
    underline-thickness="50"
    underline-position="-50"
    unicode-range="U+0020-F6C3"
  />
<missing-glyph horiz-adv-x="200" 
 />
    <glyph glyph-name=".notdef" horiz-adv-x="200" 
 />
    <glyph glyph-name="B" unicode="B" horiz-adv-x="634" 
d="M373 393c146 -12 231 -75 231 -196c0 -137 -109 -197 -282 -197h-302v8h20c51 0 60 11 60 61v561c0 51 -9 61 -60 61h-20v9h232c177 0 282 -40 282 -159c0 -85 -61 -131 -161 -148zM235 688h-71v-295h71v1c188 0 230 62 230 147s-42 147 -230 147zM305 12
c181 0 230 86 230 185c0 98 -44 185 -231 185h-140v-370h141z" />
    <glyph glyph-name="C" unicode="C" horiz-adv-x="749" 
d="M712 181l7 -4c-59 -103 -169 -192 -329 -183c-184 11 -350 135 -359 336c-9 205 157 382 368 377c150 -5 207 -84 238 -81c12 2 11 23 11 69v14h9v-236h-9v38c0 98 -104 189 -265 186c-168 -4 -285 -145 -281 -335c4 -223 162 -337 321 -346c136 -7 236 69 289 165z" />
    <glyph glyph-name="D" unicode="D" horiz-adv-x="740" 
d="M322 700c249 0 388 -157 388 -350s-139 -350 -388 -350h-158h-144v8h19c51 0 60 11 60 61v561c0 51 -9 61 -60 61h-19v9h302zM304 12c238 0 335 154 335 338s-97 338 -335 338h-140v-676h140z" />
    <glyph glyph-name="E" unicode="E" horiz-adv-x="609" 
d="M540 198h9v-198h-529v8h20c51 0 60 11 60 61v561c0 51 -9 61 -60 61h-20v9h511v-198h-8v107c0 51 -10 79 -61 79h-297v-327h202c51 0 61 32 61 83v20h9v-216h-9v19c0 51 -10 83 -61 83h-202v-338h315c50 0 60 28 60 79v107z" />
    <glyph glyph-name="F" unicode="F" horiz-adv-x="597" 
d="M20 700h512v-198h-9v107c0 51 -10 79 -61 79h-297v-327h203c50 0 61 32 61 83v20h8v-216h-8v19c0 51 -11 83 -61 83h-203v-281c0 -50 9 -61 60 -61h55v-8h-260v8h20c51 0 60 11 60 61v561c0 51 -9 61 -60 61h-20v9z" />
    <glyph glyph-name="G" unicode="G" horiz-adv-x="775" 
d="M445 332h310v-8h-2c-51 0 -60 -10 -60 -61v-263h-8v72c0 9 -2 13 -9 15c-28 7 -82 -93 -252 -93c-196 0 -384 134 -393 334c-9 210 161 379 366 379c163 0 214 -87 245 -81c12 2 11 22 11 69v13h9v-235h-9v37c0 98 -102 190 -261 186c-168 -4 -295 -140 -288 -346
c6 -201 146 -345 320 -345c112 0 168 47 206 96v162c0 51 -9 61 -60 61h-125v8z" />
    <glyph glyph-name="H" unicode="H" horiz-adv-x="765" 
d="M725 691c-51 0 -60 -10 -60 -61v-561c0 -50 9 -61 60 -61h20v-8h-225v8h20c51 0 60 11 60 61v281h-436v-281c0 -50 9 -61 60 -61h20v-8h-224v8h19c51 0 60 11 60 61v561c0 51 -9 61 -60 61h-19v9h224v-9h-20c-51 0 -60 -10 -60 -61v-269h436v269c0 51 -9 61 -60 61h-20v9
h225v-9h-20z" />
    <glyph glyph-name="I" unicode="I" horiz-adv-x="264" 
d="M224 691c-51 0 -60 -10 -60 -61v-561c0 -50 9 -61 60 -61h20v-8h-224v8h20c51 0 60 11 60 61v561c0 51 -9 61 -60 61h-20v9h224v-9h-20z" />
    <glyph glyph-name="J" unicode="J" horiz-adv-x="327" 
d="M30 700h277v-9h-20c-51 0 -60 -10 -60 -61v-516c0 -209 -113 -254 -159 -266c-29 -8 -98 -13 -131 -7c-25 4 -47 14 -46 34c2 22 20 26 44 18c23 -8 85 -44 130 -36c52 9 97 51 97 250v523c0 51 -9 61 -60 61h-72v9z" />
    <glyph glyph-name="K" unicode="K" horiz-adv-x="723" 
d="M685 8h28v-8h-224v8h11c51 0 56 14 25 61l-232 326l-129 -146v-180c0 -50 9 -61 60 -61h20v-8h-224v8h20c50 0 59 11 59 61v561c0 51 -9 61 -59 61h-20v9h224v-9h-20c-51 0 -60 -10 -60 -61v-368l331 376c30 35 19 53 -31 53h-22v9h189v-9h-20c-51 0 -74 -23 -111 -61
l-165 -187l261 -374c32 -41 44 -61 89 -61z" />
    <glyph glyph-name="L" unicode="L" horiz-adv-x="589" 
d="M541 216h8v-216h-529v8h20c51 0 60 11 60 61v561c0 51 -9 61 -60 61h-20v9h225v-9h-20c-51 0 -60 -10 -60 -61v-618h315c50 0 61 28 61 79v125z" />
    <glyph glyph-name="M" unicode="M" horiz-adv-x="879" 
d="M839 691c-51 0 -60 -10 -60 -61v-561c0 -50 9 -61 60 -61h20v-8h-224v8h20c51 0 60 11 60 61v611l-279 -488h-12l-286 451v-574c0 -50 36 -61 87 -61h20v-8h-225v8h20c51 0 87 11 87 61v561c0 51 -36 61 -87 61h-20v9h162l279 -443l254 443h144v-9h-20z" />
    <glyph glyph-name="N" unicode="N" horiz-adv-x="802" 
d="M558 700h224v-9h-20c-50 0 -86 -10 -86 -60v-631h-12l-526 655v-586c0 -50 36 -61 86 -61h20v-8h-224v8h20c51 0 86 11 86 61v562c0 50 -35 60 -86 60h-20v9h172l472 -586v517c0 50 -35 60 -86 60h-20v9z" />
    <glyph glyph-name="O" unicode="O" horiz-adv-x="804" 
d="M402 707c224 0 372 -153 372 -357s-148 -356 -372 -356c-225 0 -372 152 -372 356s147 357 372 357zM402 5c186 0 304 141 304 345s-118 345 -304 345s-304 -141 -304 -345s118 -345 304 -345z" />
    <glyph glyph-name="P" unicode="P" horiz-adv-x="591" 
d="M279 280h-114v-211c0 -50 9 -61 60 -61h55v-8h-260v8h20c51 0 60 11 60 61v562c0 50 -9 60 -60 60h-20v9h259c180 0 282 -69 282 -210s-102 -210 -282 -210zM261 688h-96v-396h96c189 0 231 92 231 198c0 105 -42 198 -231 198z" />
    <glyph glyph-name="Q" unicode="Q" horiz-adv-x="805" 
d="M517 -99c113 -50 190 -19 232 41l5 -3c-31 -61 -137 -136 -262 -90c-92 33 -142 135 -260 54c-14 -10 -38 -5 -36 15c2 19 18 20 29 18c21 -4 32 -7 51 5c26 17 47 33 74 56c-195 22 -320 165 -320 353c0 204 148 357 372 357c225 0 373 -153 373 -357
s-148 -356 -373 -356c-14 0 -29 1 -43 2c-24 -22 -38 -34 -79 -60c99 25 137 8 237 -35zM98 350c0 -204 118 -345 304 -345s304 141 304 345s-118 345 -304 345s-304 -141 -304 -345z" />
    <glyph glyph-name="R" unicode="R" horiz-adv-x="721" 
d="M724 80l7 -3c-19 -40 -58 -88 -118 -83c-78 6 -116 62 -147 181c-41 157 -106 157 -238 157h-63v-263c0 -50 9 -61 60 -61h55v-8h-260v8h20c51 0 60 11 60 61v562c0 50 -9 60 -60 60h-20v9h276c174 0 265 -62 265 -184c0 -104 -67 -164 -194 -180
c65 -10 130 -40 160 -123c32 -90 34 -195 99 -206c40 -7 79 31 98 73zM165 688v-344h114c170 0 213 80 213 172s-43 172 -213 172h-114z" />
    <glyph glyph-name="S" unicode="S" horiz-adv-x="606" 
d="M328 406c166 -68 261 -113 240 -241c-16 -99 -112 -171 -242 -171c-146 0 -228 79 -255 73c-13 -2 -12 -22 -12 -69v-14h-9v126v110h9v-37c0 -95 116 -170 252 -179c123 -7 200 47 208 142c10 119 -120 152 -236 202c-145 62 -198 121 -179 221c18 96 138 140 215 137
c122 -5 166 -68 187 -58c9 3 6 14 6 61v14h9v-126v-110h-9v37c0 95 -61 166 -193 172c-84 4 -157 -31 -163 -122c-4 -67 44 -115 172 -168z" />
    <glyph glyph-name="T" unicode="T" horiz-adv-x="670" 
d="M50 700h570v-198h-8v107c0 51 -11 79 -61 79h-184v-619c0 -50 9 -61 60 -61h20v-8h-224v8h19c51 0 60 11 60 61v619h-183c-51 0 -61 -28 -61 -79v-107h-8v198z" />
    <glyph glyph-name="U" unicode="U" horiz-adv-x="757" 
d="M512 700h225v-9h-20c-51 0 -87 -10 -87 -60v-354c0 -130 -59 -283 -242 -283c-156 0 -288 86 -288 292v345c0 50 -9 60 -60 60h-20v9h225v-9h-20c-51 0 -60 -10 -60 -60v-345c0 -198 110 -267 245 -264c124 3 209 102 209 255v354c0 50 -36 60 -87 60h-20v9z" />
    <glyph glyph-name="V" unicode="V" horiz-adv-x="737" 
d="M558 700h169v-9h-17c-45 0 -62 -18 -78 -60l-245 -631h-11l-268 631c-21 49 -36 60 -87 60h-11v9h215v-9h-20c-50 0 -47 -13 -27 -60l231 -544l211 544c20 50 9 60 -42 60h-20v9z" />
    <glyph glyph-name="W" unicode="W" horiz-adv-x="1073" 
d="M856 700h207v-9h-20c-51 0 -77 -13 -96 -60l-244 -631h-12l-158 374l-145 -374h-12l-267 631c-24 45 -37 60 -87 60h-12v9h216v-9h-20c-51 0 -46 -13 -27 -60l231 -544l117 301l-103 243c-24 45 -37 60 -88 60h-11v9h216v-9h-20c-51 0 -46 -13 -27 -60l66 -157l65 166
c19 51 3 51 -48 51h-1v9h172v-9h-20c-51 0 -77 -13 -96 -60l-66 -171l159 -373l211 544c20 50 -9 60 -60 60h-20v9z" />
    <glyph glyph-name="X" unicode="X" horiz-adv-x="734" 
d="M692 8h12v-8h-216v8h20c46 0 40 15 16 50l-185 280l-180 -269c-29 -44 -9 -61 42 -61h20v-8h-189v8h20c50 0 66 17 96 61l185 278l-188 284c-28 41 -53 60 -104 60h-11v9h216v-9h-20c-51 0 -39 -18 -11 -60l159 -241l157 241c29 46 8 60 -43 60h-20v9h189v-9h-19
c-51 0 -66 -15 -95 -60l-163 -249l207 -313c28 -43 55 -61 105 -61z" />
    <glyph glyph-name="Y" unicode="Y" horiz-adv-x="677" 
d="M478 700h189v-9h-20c-50 0 -59 -15 -86 -59l-183 -340v-223c0 -50 10 -61 60 -61h20v-8h-224v8h20c51 0 60 11 60 61v206l-212 356c-28 42 -36 60 -81 60h-11v9h215v-9h-20c-50 0 -58 -14 -33 -60l198 -333l180 336c23 44 -3 57 -53 57h-19v9z" />
    <glyph glyph-name="Z" unicode="Z" horiz-adv-x="632" 
d="M574 218h8v-218h-532v11l451 677h-365c-50 0 -61 -35 -61 -86v-120h-8v218h507v-12l-452 -677h391c50 0 61 36 61 87v120z" />
    <glyph glyph-name="a" unicode="a" horiz-adv-x="544" 
d="M539 56l5 -4c-16 -24 -50 -58 -95 -58c-49 0 -81 28 -81 87v76c-10 -54 -59 -157 -169 -163c-79 -4 -170 32 -173 119c-4 105 90 132 203 151c95 16 127 55 139 77c0 118 -53 142 -118 142c-53 0 -77 -43 -109 -74c-25 -24 -45 -24 -57 -9c-10 12 -4 31 14 43
c42 26 101 48 154 48c114 0 180 -56 180 -184v-232c0 -51 11 -67 31 -69c24 -3 57 20 76 50zM368 205v124c-21 -24 -44 -54 -151 -75c-61 -13 -138 -44 -133 -137c5 -79 70 -114 142 -107c82 8 142 106 142 195z" />
    <glyph glyph-name="b" unicode="b" horiz-adv-x="612" 
d="M334 491c154 4 258 -104 258 -249s-104 -252 -258 -248c-75 2 -151 54 -170 121l-51 -115h-13v631c0 50 -9 60 -60 60h-20v9h145v-327c21 65 96 116 169 118zM334 3c113 -3 193 96 193 239s-80 241 -193 239c-96 -3 -169 -77 -169 -151v-176c0 -74 73 -148 169 -151z" />
    <glyph glyph-name="c" unicode="c" 
d="M568 201l5 -4c-31 -55 -120 -203 -288 -203c-147 0 -251 87 -254 224c-3 149 117 273 259 273c71 -2 117 -21 157 -48c22 -16 26 -36 16 -49c-14 -17 -43 -10 -64 20c-21 31 -53 63 -126 66c-110 1 -196 -98 -182 -243c13 -139 106 -205 213 -212
c158 -10 238 127 264 176z" />
    <glyph glyph-name="d" unicode="d" horiz-adv-x="611" 
d="M581 8h20v-8h-145v111c-21 -65 -95 -115 -168 -117c-154 -4 -258 103 -258 248s104 253 258 249c73 -2 147 -53 168 -118v258c0 50 -9 60 -59 60h-20v9h144v-631c0 -50 9 -61 60 -61zM288 3c95 3 168 77 168 151v176c0 74 -73 148 -168 151c-114 2 -193 -96 -193 -239
s79 -242 193 -239z" />
    <glyph glyph-name="e" unicode="e" 
d="M568 201l5 -4c-31 -55 -120 -203 -288 -203c-148 0 -251 87 -254 224c-3 149 117 273 259 273c109 0 194 -72 194 -181h-392c-3 -23 -4 -47 -2 -73c13 -139 107 -205 213 -212c159 -10 238 127 265 176zM273 480c-89 1 -161 -62 -179 -162h327c4 82 -39 161 -148 162z
" />
    <glyph glyph-name="f" unicode="f" horiz-adv-x="369" 
d="M362 687c19 -8 32 -22 25 -38s-33 -15 -54 3c-23 20 -68 51 -105 42c-32 -8 -58 -29 -58 -137v-73h176v-9h-176v-406c0 -50 9 -61 60 -61h55v-8h-260v8h20c51 0 60 11 60 61v406h-85v9h85v21c0 128 37 188 127 199c46 5 99 -5 130 -17z" />
    <glyph glyph-name="g" unicode="g" horiz-adv-x="593" 
d="M343 -28c182 -12 267 -30 246 -142c-23 -117 -178 -242 -303 -264c-112 -20 -287 24 -275 145c7 77 72 130 140 171c22 14 45 25 65 33c-78 7 -156 24 -161 76c-7 70 108 104 173 108c-98 20 -162 94 -162 193c0 116 88 199 213 199c30 0 58 -6 83 -14c23 7 86 25 159 37
c32 6 47 -3 47 -21c0 -17 -14 -25 -55 -22c-78 4 -121 5 -142 2c75 -30 122 -96 122 -181c0 -116 -88 -198 -214 -198c-6 0 -12 0 -17 1c0 0 -70 -4 -102 -17c-31 -13 -55 -31 -53 -52c5 -34 70 -43 236 -54zM133 292c0 -114 52 -189 146 -189c95 0 147 75 147 189
s-52 189 -147 189c-94 0 -146 -75 -146 -189zM301 -388c168 16 271 130 261 220c-11 89 -148 71 -231 77c-26 1 -63 2 -100 5c-36 -13 -91 -40 -146 -92c-59 -55 -52 -122 4 -162c50 -35 132 -55 212 -48z" />
    <glyph glyph-name="h" unicode="h" horiz-adv-x="624" 
d="M594 8h20v-8h-225v8h20c51 0 60 11 60 61v246c0 100 -54 163 -137 163c-99 0 -167 -92 -167 -167v-242c0 -50 9 -61 60 -61h20v-8h-225v8h20c51 0 60 11 60 61v562c0 50 -9 60 -60 60h-20v9h145v-332c23 64 89 123 179 123c114 0 190 -67 190 -189v-233
c0 -50 9 -61 60 -61z" />
    <glyph glyph-name="i" unicode="i" horiz-adv-x="255" 
d="M225 8h20v-8h-225v8h20c51 0 60 11 60 61v346c0 50 -9 60 -60 60h-20v9h145v-415c0 -50 9 -61 60 -61zM127 585c-26 0 -46 20 -46 46c0 25 20 46 46 46c25 0 46 -21 46 -46c0 -26 -21 -46 -46 -46z" />
    <glyph glyph-name="j" unicode="j" horiz-adv-x="244" 
d="M22 484h144v-467c0 -209 -96 -250 -141 -263c-29 -8 -81 -12 -114 -6c-24 4 -47 14 -45 33c1 23 20 26 44 18c22 -8 67 -44 112 -36c52 10 80 55 80 254v398c0 50 -9 60 -60 60h-20v9zM128 585c-25 0 -46 20 -46 46c0 25 21 46 46 46c26 0 46 -21 46 -46
c0 -26 -20 -46 -46 -46z" />
    <glyph glyph-name="k" unicode="k" horiz-adv-x="588" 
d="M563 8h15v-8h-104c-28 0 -44 18 -59 38c-13 20 -144 213 -163 240l-87 -84v-125c0 -50 9 -61 60 -61h20v-8h-225v8h20c51 0 60 11 60 61v562c0 50 -9 60 -60 60h-20v9h145v-494l225 216c30 30 31 53 -16 53h-20v9h172v-9h-20c-50 0 -75 -25 -112 -60l-99 -96l171 -250
c25 -35 58 -61 97 -61z" />
    <glyph glyph-name="l" unicode="l" horiz-adv-x="254" 
d="M224 8h20v-8h-224v8h20c50 0 60 11 60 61v562c0 50 -10 60 -60 60h-20v9h144v-631c0 -50 9 -61 60 -61z" />
    <glyph glyph-name="m" unicode="m" horiz-adv-x="922" 
d="M892 8h20v-8h-225v8h20c51 0 60 11 60 61v246c0 100 -47 163 -128 163c-93 0 -141 -92 -141 -167v-242c0 -50 9 -61 60 -61h20v-8h-224v8h20c50 0 59 11 59 61v246c0 100 -47 163 -127 163c-94 0 -142 -92 -142 -167v-242c0 -50 10 -61 60 -61h20v-8h-224v8h20
c51 0 60 11 60 61v346c0 50 -9 60 -60 60h-20v9h144v-109c19 61 69 116 153 116c95 0 158 -48 176 -136c13 68 65 136 158 136c112 0 181 -67 181 -189v-233c0 -50 9 -61 60 -61z" />
    <glyph glyph-name="n" unicode="n" horiz-adv-x="623" 
d="M593 8h20v-8h-224v8h20c50 0 60 11 60 61v246c0 100 -54 163 -137 163c-100 0 -167 -92 -167 -167v-242c0 -50 9 -61 59 -61h20v-8h-224v8h20c51 0 60 11 60 61v345c0 51 -9 61 -60 61h-20v9h145v-116c22 64 89 123 178 123c115 0 190 -67 190 -189v-233
c0 -50 9 -61 60 -61z" />
    <glyph glyph-name="o" unicode="o" horiz-adv-x="572" 
d="M291 491c154 0 261 -104 261 -249s-107 -248 -261 -248c-155 0 -261 103 -261 248s106 249 261 249zM291 3c124 0 197 96 197 239s-73 239 -197 239s-197 -96 -197 -239s73 -239 197 -239z" />
    <glyph glyph-name="p" unicode="p" horiz-adv-x="611" 
d="M333 491c155 4 258 -104 258 -249s-103 -252 -258 -248c-73 2 -147 52 -168 117v-258c0 -51 9 -61 60 -61h55v-8h-260v8h20c51 0 60 10 60 61v561c0 51 -9 61 -60 61h-20v9h145v-111c21 65 95 116 168 118zM333 3c114 -3 193 96 193 239s-79 241 -193 239
c-95 -3 -168 -77 -168 -151v-176c0 -74 73 -148 168 -151z" />
    <glyph glyph-name="q" unicode="q" horiz-adv-x="601" 
d="M581 -208h20v-8h-260v8h55c51 0 60 10 60 61v258c-21 -65 -95 -115 -168 -117c-155 -4 -258 103 -258 248s103 253 258 249c74 -2 150 -56 170 -122l51 115h12v-631c0 -51 9 -61 60 -61zM456 154v176c0 74 -73 148 -168 151c-114 2 -193 -96 -193 -239s79 -242 193 -239
c95 3 168 77 168 151z" />
    <glyph glyph-name="r" unicode="r" horiz-adv-x="432" 
d="M370 487c30 -4 46 -14 40 -37c-4 -19 -30 -26 -61 -12c-47 23 -88 39 -130 -1c-38 -35 -55 -106 -55 -154v-214c0 -50 9 -61 60 -61h55v-8h-259v8h20c50 0 60 11 60 61v345c0 51 -10 61 -60 61h-20v9h144v-142c10 36 26 73 48 103c31 41 85 51 158 42z" />
    <glyph glyph-name="s" unicode="s" horiz-adv-x="442" 
d="M230 285c77 -33 202 -65 191 -164c-10 -88 -95 -130 -189 -127c-107 3 -152 60 -178 56c-14 -3 -17 -23 -17 -44v-15h-7v201h7v-38c0 -100 111 -146 183 -149c77 -4 152 26 156 90c4 62 -61 88 -157 125c-108 42 -173 84 -159 169c15 88 131 103 163 102
c101 -3 126 -43 145 -44c12 0 14 14 14 28v19h6v-201h-6v38c0 92 -41 145 -160 149c-53 2 -122 -28 -121 -90c0 -56 62 -76 129 -105z" />
    <glyph glyph-name="t" unicode="t" horiz-adv-x="372" 
d="M347 88l5 -5c-16 -19 -61 -89 -126 -89c-89 0 -131 44 -131 148v333h-85v9c75 0 126 73 143 155h7v-155h149v-9h-149v-350c0 -96 36 -117 77 -117c57 0 90 55 110 80z" />
    <glyph glyph-name="u" unicode="u" horiz-adv-x="613" 
d="M583 8h20v-8h-145v111c-19 -62 -74 -117 -161 -117c-118 0 -207 59 -207 187v233c0 51 -9 61 -60 61h-20v9h144v-315c0 -106 66 -163 156 -163c100 0 148 91 148 167v241c0 51 -9 61 -59 61h-20v9h144v-415c0 -50 9 -61 60 -61z" />
    <glyph glyph-name="v" unicode="v" horiz-adv-x="551" 
d="M400 484h141v-9h-7c-46 0 -60 -20 -77 -61l-176 -414h-11l-191 414c-23 49 -37 61 -88 61h-11v9h208v-9h-14c-51 0 -51 -14 -29 -61l158 -338l143 338c21 50 7 61 -44 61h-2v9z" />
    <glyph glyph-name="w" unicode="w" horiz-adv-x="806" 
d="M655 484h141v-9h-7c-46 0 -59 -20 -75 -60l-160 -415h-12l-133 302l-128 -302h-11l-192 414c-22 48 -36 61 -87 61h-11v9h208v-9h-15c-50 0 -50 -15 -29 -60l155 -347l104 246l-44 100c-21 48 -35 61 -86 61h-11v9h208v-9h-15c-51 0 -51 -15 -31 -60l147 -342l132 342
c19 48 5 60 -46 60h-2v9z" />
    <glyph glyph-name="x" unicode="x" horiz-adv-x="549" 
d="M528 8h11v-8h-191v8h16c51 0 42 19 11 61l-117 159l-119 -159c-32 -42 -32 -61 10 -61h16v-8h-145v8h11c33 0 65 19 97 61l124 167l-132 178c-29 40 -45 61 -87 61h-11v9h191v-9h-16c-51 0 -42 -18 -11 -60l104 -142l102 141c31 43 31 61 -11 61h-16v9h144v-9h-11
c-32 0 -62 -17 -94 -61l-108 -149l145 -196c31 -41 45 -61 87 -61z" />
    <glyph glyph-name="y" unicode="y" horiz-adv-x="538" 
d="M387 484h141v-9h-8c-45 0 -60 -20 -77 -61l-175 -414c-83 -189 -164 -219 -248 -209c-25 3 -41 10 -39 30s18 22 43 19c100 -14 155 -11 232 160l-176 414c-20 49 -34 61 -85 61h-11v9h208v-9h-14c-51 0 -52 -14 -32 -61l144 -337l142 337c21 50 8 61 -43 61h-2v9z" />
    <glyph glyph-name="z" unicode="z" horiz-adv-x="460" 
d="M421 173h9v-173h-400v11l318 461h-240c-50 0 -61 -35 -61 -86v-75h-8v173h373v-12l-318 -461h266c51 0 61 36 61 87v75z" />
    <glyph glyph-name="space" unicode=" " horiz-adv-x="200" 
 />
    <glyph glyph-name="one" unicode="1" horiz-adv-x="272" 
d="M232 8h20v-8h-224v8h20c50 0 60 11 60 61v553c0 51 -98 -1 -98 -1v9l153 70h9v-631c0 -50 9 -61 60 -61z" />
    <glyph glyph-name="two" unicode="2" horiz-adv-x="552" 
d="M504 192h8v-192h-472v35l31 24h1c65 52 129 109 250 236c81 85 91 174 85 248c-7 77 -66 157 -164 153c-132 -5 -168 -99 -168 -194v-38h-8v236h8v-14c0 -46 -2 -58 6 -61c18 -6 43 76 170 82c91 4 206 -38 226 -138c21 -100 -36 -178 -147 -283
c-110 -105 -135 -139 -248 -227h361c51 0 61 10 61 61v72z" />
    <glyph glyph-name="three" unicode="3" horiz-adv-x="560" 
d="M373 378c120 -11 177 -96 149 -210c-25 -100 -135 -174 -267 -174c-83 0 -191 36 -235 106l7 5c36 -52 121 -104 243 -93c91 8 152 60 175 153c23 94 -10 179 -91 197c-56 13 -93 -3 -149 -18l-4 9c102 28 198 74 218 177c19 106 -48 173 -145 166
c-111 -8 -168 -99 -168 -194v-38h-8v236h8v-14c0 -46 1 -55 6 -61c16 -16 52 79 175 82c91 2 208 -46 200 -156c-6 -88 -86 -136 -187 -175c22 3 46 4 73 2z" />
    <glyph glyph-name="four" unicode="4" horiz-adv-x="595" 
d="M565 175h-137v-106c0 -50 9 -61 60 -61h20v-8h-225v8h20c51 0 60 11 60 61v106h-343v11l399 514h9v-514h137v-11zM36 186h327v422z" />
    <glyph glyph-name="five" unicode="5" horiz-adv-x="540" 
d="M320 425c121 -12 203 -85 188 -208c-13 -108 -116 -223 -271 -223c-83 0 -173 36 -217 106l7 5c35 -55 108 -107 226 -93c105 12 166 104 177 197c14 108 -33 184 -130 196c-75 10 -133 -12 -184 -45l-6 5l20 335h346v-192h-8v72c0 49 -10 59 -55 60l-276 -1l-16 -265
c46 32 118 59 199 51z" />
    <glyph glyph-name="six" unicode="6" horiz-adv-x="578" 
d="M352 442c111 -14 198 -109 184 -238c-10 -98 -88 -219 -254 -210c-109 6 -261 91 -239 318c23 251 268 389 445 391l-1 -9c-110 -1 -346 -61 -364 -364c30 73 119 125 229 112zM462 203c3 118 -42 197 -131 220c-93 24 -206 -44 -210 -147c-9 -244 127 -279 193 -272
c104 12 146 112 148 199z" />
    <glyph glyph-name="seven" unicode="7" horiz-adv-x="548" 
d="M40 700h468v-25c-156 -154 -257 -452 -257 -675h-93c34 225 176 476 304 639l-358 1c-46 0 -56 -11 -56 -60v-82h-8v202z" />
    <glyph glyph-name="eight" unicode="8" horiz-adv-x="592" 
d="M384 361c112 -46 168 -99 168 -181c0 -78 -59 -186 -246 -186c-191 0 -266 81 -266 168c0 105 93 167 159 198c-58 29 -132 76 -129 176c4 108 119 171 222 171c159 0 228 -99 231 -166c2 -63 -27 -125 -139 -180zM127 544c8 -103 180 -153 244 -177c42 30 86 83 84 171
c-3 106 -79 157 -164 157c-77 0 -172 -50 -164 -151zM296 6c99 -5 188 36 191 143c4 122 -189 169 -276 204c-56 -39 -101 -93 -103 -179c-2 -95 93 -162 188 -168z" />
    <glyph glyph-name="nine" unicode="9" horiz-adv-x="578" 
d="M226 259c-111 13 -198 108 -184 237c10 98 89 220 254 211c109 -6 261 -92 240 -318c-24 -252 -269 -390 -446 -392l1 9c110 1 346 61 365 364c-31 -73 -120 -125 -230 -111zM116 497c-3 -118 42 -197 131 -220c93 -24 206 44 210 148c9 243 -127 278 -192 271
c-105 -11 -146 -112 -149 -199z" />
    <glyph glyph-name="zero" unicode="0" horiz-adv-x="620" 
d="M310 707c152 0 270 -141 270 -357s-118 -356 -270 -356c-151 0 -270 140 -270 356s119 357 270 357zM310 5c120 0 188 141 188 345s-68 345 -188 345c-119 0 -188 -141 -188 -345s69 -345 188 -345z" />
    <glyph glyph-name="period" unicode="." horiz-adv-x="222" 
d="M111 92c28 0 51 -22 51 -49s-23 -49 -51 -49s-51 22 -51 49s23 49 51 49z" />
    <glyph glyph-name="comma" unicode="," horiz-adv-x="223" 
d="M111 92c30 0 49 -22 51 -49c5 -66 -32 -129 -83 -181l-6 6c38 36 80 114 43 121c-32 7 -56 22 -56 54c0 27 23 49 51 49z" />
    <glyph glyph-name="colon" unicode=":" horiz-adv-x="221" 
d="M111 92c28 0 50 -22 50 -49s-22 -49 -50 -49c-29 0 -51 22 -51 49s22 49 51 49zM111 336c-29 0 -51 22 -51 49s22 49 51 49c28 0 50 -22 50 -49s-22 -49 -50 -49z" />
    <glyph glyph-name="semicolon" unicode=";" horiz-adv-x="222" 
d="M111 336c-28 0 -51 22 -51 49s23 49 51 49s51 -22 51 -49s-23 -49 -51 -49zM111 92c30 0 48 -22 50 -49c5 -66 -32 -129 -82 -181l-7 6c39 36 80 114 44 121c-32 7 -56 22 -56 54c0 27 23 49 51 49z" />
    <glyph glyph-name="question" unicode="?" horiz-adv-x="490" 
d="M446 569c20 -100 -59 -147 -142 -275c-40 -62 -60 -87 -95 -137l-7 4c45 70 58 85 93 142c62 99 87 166 80 240c-7 77 -49 159 -147 153c-120 -7 -149 -99 -149 -194v-38h-9v236h9v-14c0 -46 -2 -58 5 -61c20 -6 26 76 153 82c91 4 188 -38 209 -138zM239 92
c28 0 51 -22 51 -49s-23 -49 -51 -49s-51 22 -51 49s23 49 51 49z" />
    <glyph glyph-name="exclam" unicode="!" horiz-adv-x="241" 
d="M122 157h-7l-45 516l95 42zM121 92c28 0 50 -22 50 -49s-22 -49 -50 -49s-51 22 -51 49s23 49 51 49z" />
    <glyph glyph-name="minus" unicode="&#x2212;" horiz-adv-x="479" 
d="M60 326h359v-11h-359v11z" />
    <glyph glyph-name="plus" unicode="+" horiz-adv-x="479" 
d="M419 326v-11h-174v-174h-11v174h-174v11h174v174h11v-174h174z" />
    <glyph glyph-name="equal" unicode="=" horiz-adv-x="479" 
d="M60 245v11h359v-11h-359zM60 396h359v-11h-359v11z" />
    <glyph glyph-name="multiply" unicode="&#xd7;" horiz-adv-x="382" 
d="M322 443l-123 -122l123 -123l-8 -8l-123 122l-123 -122l-8 8l123 123l-123 122l8 9l123 -123l123 123z" />
    <glyph glyph-name="divide" unicode="&#xf7;" horiz-adv-x="479" 
d="M60 326h359v-11h-359v11zM240 234c28 0 50 -22 50 -49s-22 -49 -50 -49s-51 22 -51 49s23 49 51 49zM240 408c-28 0 -51 22 -51 49s23 49 51 49s50 -22 50 -49s-22 -49 -50 -49z" />
    <glyph glyph-name="notequal" unicode="&#x2260;" horiz-adv-x="479" 
d="M419 385h-114l-116 -129h230v-11h-240l-67 -75l-9 8l60 67h-103v11h114l115 129h-229v11h240l67 75l8 -8l-60 -67h104v-11z" />
    <glyph glyph-name="plusminus" unicode="&#xb1;" horiz-adv-x="479" 
d="M245 396h174v-11h-174v-174h-12v174h-173v11h173v174h12v-174zM60 141v12h359v-12h-359z" />
    <glyph glyph-name="numbersign" unicode="#" horiz-adv-x="800" 
d="M750 459h-213v-219h213v-11h-213v-229h-11v229h-251v-229h-12v229h-213v11h213v219h-213v12h213v229h12v-229h251v229h11v-229h213v-12zM526 240v219h-251v-219h251z" />
    <glyph glyph-name="bracketleft" unicode="[" horiz-adv-x="287" 
d="M90 735h167v-12h-119v-764h119v-12h-167v788z" />
    <glyph glyph-name="bracketright" unicode="]" horiz-adv-x="286" 
d="M30 735h166v-788h-166v12h119v764h-119v12z" />
    <glyph glyph-name="exclamdown" unicode="&#xa1;" horiz-adv-x="242" 
d="M119 208h7l45 -516l-95 -43zM121 371c28 0 51 -22 51 -50c0 -27 -23 -49 -51 -49s-51 22 -51 49c0 28 23 50 51 50z" />
    <glyph glyph-name="questiondown" unicode="&#xbf;" horiz-adv-x="489" 
d="M411 -100h8v-236h-8v14c0 47 2 59 -6 61c-19 6 -26 -75 -152 -81c-91 -4 -189 37 -209 138c-20 99 58 146 141 274c40 62 61 87 95 138l7 -5c-44 -69 -57 -85 -93 -142c-62 -99 -86 -166 -80 -240c7 -77 49 -159 147 -153c121 8 150 100 150 195v37zM250 272
c-28 0 -50 22 -50 49c0 28 22 50 50 50s51 -22 51 -50c0 -27 -23 -49 -51 -49z" />
    <glyph glyph-name="quotesinglbase" unicode="&#x201a;" horiz-adv-x="222" 
d="M111 92c30 0 48 -22 50 -49c5 -66 -32 -129 -82 -181l-7 6c39 36 81 114 44 121c-32 7 -56 22 -56 54c0 27 23 49 51 49z" />
    <glyph glyph-name="quotedblbase" unicode="&#x201e;" horiz-adv-x="390" 
d="M111 92c30 0 49 -22 51 -49c5 -66 -32 -129 -83 -181l-6 6c38 36 80 114 43 121c-31 7 -56 22 -56 54c0 27 23 49 51 49zM278 92c30 0 49 -22 51 -49c5 -66 -32 -129 -83 -181l-6 6c38 36 80 114 43 121c-31 7 -56 22 -56 54c0 27 23 49 51 49z" />
    <glyph glyph-name="quoteleft" unicode="&#x2018;" horiz-adv-x="223" 
d="M107 649c32 -7 56 -21 56 -53c0 -28 -23 -50 -51 -50c-30 0 -49 22 -51 50c-4 65 32 129 83 180l7 -6c-39 -36 -81 -113 -44 -121z" />
    <glyph glyph-name="quoteright" unicode="&#x2019;" horiz-adv-x="222" 
d="M110 706c30 0 49 -22 51 -49c5 -66 -32 -129 -83 -181l-6 7c38 35 80 113 44 121c-32 6 -56 21 -56 53c0 27 22 49 50 49z" />
    <glyph glyph-name="quotedblleft" unicode="&#x201c;" horiz-adv-x="390" 
d="M273 649c32 -7 57 -21 57 -53c0 -28 -23 -50 -51 -50c-30 0 -49 22 -51 50c-5 65 32 129 83 180l6 -6c-38 -36 -80 -113 -44 -121zM106 649c32 -7 56 -21 56 -53c0 -28 -22 -50 -50 -50c-30 0 -49 22 -51 50c-5 65 32 129 83 180l6 -6c-38 -36 -80 -113 -44 -121z" />
    <glyph glyph-name="quotedblright" unicode="&#x201d;" horiz-adv-x="390" 
d="M111 706c30 0 49 -22 50 -49c5 -66 -32 -129 -82 -181l-7 7c39 35 81 113 44 121c-32 6 -56 21 -56 53c0 27 23 49 51 49zM278 706c30 0 49 -22 51 -49c4 -66 -32 -129 -83 -181l-7 7c39 35 81 113 44 121c-32 6 -56 21 -56 53c0 27 23 49 51 49z" />
    <glyph glyph-name="slash" unicode="/" horiz-adv-x="279" 
d="M248 700h11l-227 -700h-12z" />
    <glyph glyph-name="backslash" unicode="\" horiz-adv-x="279" 
d="M32 700l227 -700h-11l-228 700h12z" />
    <glyph glyph-name="parenleft" unicode="(" horiz-adv-x="371" 
d="M136 335c0 -134 33 -284 155 -392l-5 -8c-133 101 -206 239 -206 400s73 299 206 400l5 -8c-122 -108 -155 -257 -155 -392z" />
    <glyph glyph-name="parenright" unicode=")" horiz-adv-x="370" 
d="M84 735c134 -101 206 -239 206 -400s-72 -299 -206 -400l-4 8c122 108 154 258 154 392c0 135 -32 284 -154 392z" />
    <glyph glyph-name="guillemotleft" unicode="&#xab;" horiz-adv-x="329" 
d="M151 468l6 -4l-64 -187l64 -186l-6 -4l-101 190zM269 464l-64 -187l64 -186l-6 -4l-101 190l101 191z" />
    <glyph glyph-name="guilsinglleft" unicode="&#x2039;" horiz-adv-x="217" 
d="M157 456l-64 -187l64 -187l-5 -3l-102 190l102 190z" />
    <glyph glyph-name="guillemotright" unicode="&#xbb;" horiz-adv-x="328" 
d="M177 468l101 -191l-101 -190l-6 4l64 186l-64 187zM60 464l5 4l101 -191l-101 -190l-5 4l63 186z" />
    <glyph glyph-name="guilsinglright" unicode="&#x203a;" horiz-adv-x="217" 
d="M66 459l101 -190l-101 -190l-6 3l64 187l-64 187z" />
    <glyph glyph-name="bar" unicode="|" horiz-adv-x="227" 
d="M90 700h47v-788h-47v788z" />
    <glyph glyph-name="hyphen" unicode="-" horiz-adv-x="479" 
d="M60 326h359v-11h-359v11z" />
    <glyph glyph-name="endash" unicode="&#x2013;" horiz-adv-x="531" 
d="M60 326h411v-11h-411v11z" />
    <glyph glyph-name="emdash" unicode="&#x2014;" horiz-adv-x="583" 
d="M60 326h463v-11h-463v11z" />
    <glyph glyph-name="underscore" unicode="_" horiz-adv-x="531" 
d="M60 0h411v-12h-411v12z" />
    <glyph glyph-name="quotesingle" unicode="'" horiz-adv-x="163" 
d="M81 715c15 0 23 -6 21 -34s-18 -225 -18 -225h-5s-16 197 -18 225s6 34 20 34z" />
    <glyph glyph-name="quotedbl" unicode="&#x22;" horiz-adv-x="276" 
d="M81 715c15 0 23 -6 21 -34c-3 -28 -19 -225 -19 -225h-4s-16 197 -18 225c-3 28 6 34 20 34zM195 715c14 0 22 -6 20 -34s-18 -225 -18 -225h-5s-16 197 -18 225s6 34 21 34z" />
    <glyph glyph-name="asciitilde" unicode="~" horiz-adv-x="480" 
d="M411 349l9 -3c-15 -49 -64 -99 -112 -99s-121 42 -167 46c-33 4 -51 -4 -71 -55l-10 4s18 52 48 73c29 20 70 36 160 4c89 -31 129 -20 143 30z" />
    <glyph glyph-name="approxequal" unicode="&#x2248;" horiz-adv-x="479" 
d="M141 391c-34 3 -51 -4 -71 -55l-10 3s18 53 47 73c30 21 71 37 160 5c90 -32 129 -20 143 30l9 -3c-15 -49 -64 -99 -111 -99c-48 0 -122 41 -167 46zM267 284c90 -31 129 -20 143 30l9 -3c-15 -49 -64 -99 -111 -99c-48 0 -122 42 -167 46c-34 3 -51 -4 -71 -55l-10 4
s18 52 47 73c30 20 71 36 160 4z" />
    <glyph glyph-name="asciicircum" unicode="^" horiz-adv-x="396" 
d="M198 728l138 -136l-4 -6l-134 95l-134 -95l-4 6z" />
    <glyph glyph-name="percent" unicode="%" horiz-adv-x="853" 
d="M637 700h12l-420 -700h-11zM379 525c0 -107 -79 -182 -170 -182s-169 75 -169 182c0 106 78 182 169 182s170 -76 170 -182zM209 353c69 0 110 68 110 172s-41 172 -110 172s-110 -68 -110 -172s41 -172 110 -172zM643 356c91 0 170 -74 170 -181s-79 -181 -170 -181
s-169 74 -169 181s78 181 169 181zM643 3c69 0 110 68 110 172s-41 172 -110 172c-68 0 -110 -68 -110 -172s42 -172 110 -172z" />
    <glyph glyph-name="perthousand" unicode="&#x2030;" horiz-adv-x="1268" 
d="M379 525c0 -107 -79 -182 -170 -182s-169 75 -169 182c0 106 78 182 169 182s170 -76 170 -182zM209 353c69 0 110 68 110 172s-41 172 -110 172s-110 -68 -110 -172s41 -172 110 -172zM643 356c91 0 170 -74 170 -181s-79 -181 -170 -181c-90 0 -169 74 -169 181
s79 181 169 181zM643 3c69 0 111 68 111 172s-42 172 -111 172c-68 0 -110 -68 -110 -172s42 -172 110 -172zM1058 356c91 0 170 -74 170 -181s-79 -181 -170 -181c-90 0 -169 74 -169 181s79 181 169 181zM1058 3c69 0 111 68 111 172s-42 172 -111 172
c-68 0 -110 -68 -110 -172s42 -172 110 -172zM638 700h11l-420 -700h-11z" />
    <glyph glyph-name="bullet" unicode="&#x2022;" horiz-adv-x="284" 
d="M142 464c45 0 82 -35 82 -79s-37 -79 -82 -79s-82 35 -82 79s37 79 82 79z" />
    <glyph glyph-name="degree" unicode="&#xb0;" horiz-adv-x="413" 
d="M207 707c80 0 156 -58 156 -146s-76 -144 -156 -144s-157 56 -157 144s77 146 157 146zM207 426c57 0 97 52 97 135s-40 136 -97 136s-97 -53 -97 -136s40 -135 97 -135z" />
    <glyph glyph-name="afii61352" unicode="&#x2116;" horiz-adv-x="1193" 
d="M804 274h359v-12h-359v12zM558 691v9h225v-9h-20c-51 0 -87 -10 -87 -60v-631h-11l-527 655v-586c0 -50 36 -61 87 -61h20v-8h-225v8h20c51 0 87 11 87 61v562c0 50 -36 60 -87 60h-20v9h173l472 -586v517c0 50 -36 60 -87 60h-20zM983 417c-80 0 -156 57 -156 144
c0 88 76 146 156 146s157 -58 157 -146c0 -87 -77 -144 -157 -144zM983 697c-57 0 -97 -53 -97 -136s40 -135 97 -135s97 52 97 135s-40 136 -97 136z" />
    <glyph glyph-name="section" unicode="&#xa7;" horiz-adv-x="608" 
d="M555 288c-7 -48 -30 -89 -67 -120c11 -27 13 -57 7 -92c-19 -97 -119 -140 -196 -138c-123 4 -171 87 -187 81c-7 -3 -6 -14 -6 -61v-14h-8v125v111h8v-37c0 -95 62 -189 194 -195c87 -3 146 44 152 122c6 67 -45 116 -171 168c-189 79 -244 127 -228 241
c7 48 30 89 67 119c-11 27 -13 58 -7 93c19 97 119 140 196 137c123 -3 171 -86 187 -80c7 3 6 14 6 61v14h8v-126v-110h-8v37c0 95 -62 189 -194 195c-87 3 -146 -44 -152 -122c-6 -67 45 -116 172 -169c188 -78 243 -126 227 -240zM326 297c78 -36 128 -70 153 -111
c17 23 27 50 31 83c15 122 -129 157 -228 201c-78 36 -128 70 -153 110c-17 -22 -27 -49 -31 -82c-15 -123 129 -157 228 -201z" />
    <glyph glyph-name="paragraph" unicode="&#xb6;" horiz-adv-x="590" 
d="M218 700h352v-9h-20c-51 0 -86 -10 -86 -60v-631h-12v688h-174v-688h-12v343h-48c-98 0 -178 80 -178 179c0 98 80 178 178 178z" />
    <glyph glyph-name="brokenbar" unicode="&#xa6;" horiz-adv-x="228" 
d="M90 -88v298h48v-298h-48zM90 700h48v-298h-48v298z" />
    <glyph glyph-name="greater" unicode="&#x3e;" horiz-adv-x="532" 
d="M65 481l407 -156v-12l-407 -156l-5 10l397 152l-397 152z" />
    <glyph glyph-name="less" unicode="&#x3c;" horiz-adv-x="531" 
d="M471 471l-397 -152l397 -152l-5 -10l-406 156v12l406 156z" />
    <glyph glyph-name="ellipsis" unicode="&#x2026;" horiz-adv-x="610" 
d="M111 92c28 0 51 -22 51 -49s-23 -49 -51 -49s-51 22 -51 49s23 49 51 49zM305 92c28 0 51 -22 51 -49s-23 -49 -51 -49s-51 22 -51 49s23 49 51 49zM499 92c28 0 51 -22 51 -49s-23 -49 -51 -49s-50 22 -50 49s22 49 50 49z" />
    <glyph glyph-name="dagger" unicode="&#x2020;" horiz-adv-x="353" 
d="M276 482c28 2 37 -12 37 -26c0 -15 -9 -28 -37 -26c-25 2 -84 19 -97 23c2 -17 12 -109 26 -147c-16 -51 -26 -293 -26 -326h-5c0 33 -10 275 -26 326c14 38 24 130 26 147c-13 -4 -72 -21 -97 -23c-29 -2 -37 11 -37 26c0 14 8 28 37 26c24 -2 82 -19 96 -23
c-4 14 -20 72 -22 96c-3 29 11 38 25 38c15 0 28 -9 26 -38c-2 -24 -18 -82 -22 -96c14 4 71 21 96 23z" />
    <glyph glyph-name="daggerdbl" unicode="&#x2021;" horiz-adv-x="354" 
d="M276 182c29 2 38 -11 38 -26c0 -14 -9 -28 -38 -25c-24 2 -82 18 -96 22c4 -14 21 -72 23 -96c2 -29 -12 -38 -26 -38c-15 0 -28 9 -26 38c2 24 19 82 23 96c-15 -4 -72 -20 -97 -22c-28 -3 -37 11 -37 25c0 15 9 28 37 26c25 -2 84 -19 97 -23c-2 18 -12 109 -26 147
c14 38 24 130 26 147c-13 -4 -72 -21 -97 -23c-28 -2 -37 11 -37 26c0 14 9 28 37 26c25 -2 82 -19 97 -23c-4 14 -21 72 -23 96c-2 29 11 38 26 38c14 0 28 -9 26 -38c-2 -24 -19 -82 -23 -96c14 4 72 21 96 23c29 2 38 -12 38 -26c0 -15 -9 -28 -38 -26
c-25 2 -84 19 -97 23c2 -17 12 -109 26 -147c-14 -38 -24 -129 -26 -147c13 4 72 21 97 23z" />
    <glyph glyph-name="copyright" unicode="&#xa9;" horiz-adv-x="749" 
d="M391 126c73 -4 127 37 156 88l3 -2c-32 -55 -90 -102 -176 -97c-99 5 -188 72 -193 180c-4 110 84 204 197 201c81 -2 112 -44 128 -43c6 1 6 12 6 37v8h5v-127h-5v20c0 53 -56 102 -142 100c-90 -2 -153 -77 -151 -179c3 -120 87 -181 172 -186zM375 650
c190 0 344 -154 344 -344s-154 -344 -344 -344s-345 154 -345 344s155 344 345 344zM375 -30c185 0 335 151 335 336s-150 336 -335 336s-336 -151 -336 -336s151 -336 336 -336z" />
    <glyph glyph-name="registered" unicode="&#xae;" horiz-adv-x="749" 
d="M536 130c22 -3 42 18 53 40l4 -2c-10 -21 -31 -47 -64 -44c-41 3 -62 33 -79 97c-22 84 -56 84 -127 84h-36v-141c0 -27 5 -33 32 -33h29v-4h-139v4h11c27 0 32 6 32 33v301c0 27 -5 33 -32 33h-11v4h148c93 0 142 -33 142 -98c0 -56 -35 -88 -103 -97
c36 -5 71 -21 87 -66c17 -48 18 -105 53 -111zM287 496v-185h61c91 0 114 43 114 93c0 49 -23 92 -114 92h-61zM375 650c190 0 344 -154 344 -344s-154 -344 -344 -344s-345 154 -345 344s155 344 345 344zM375 -30c185 0 335 151 335 336s-150 336 -335 336
s-336 -151 -336 -336s151 -336 336 -336z" />
    <glyph glyph-name="asterisk" unicode="*" horiz-adv-x="386" 
d="M324 625c5 -14 0 -30 -27 -36c-24 -6 -84 -8 -99 -9c12 -9 59 -46 75 -65c19 -21 13 -36 1 -45c-12 -8 -28 -9 -43 15c-12 21 -32 76 -38 91c-5 -15 -25 -70 -38 -91c-14 -24 -31 -23 -42 -15c-12 9 -18 24 1 45c16 19 63 56 74 65c-14 1 -74 3 -98 9
c-28 6 -32 22 -28 36c5 14 18 24 44 13c23 -10 73 -44 84 -52c-3 11 -20 72 -23 98c-2 28 12 37 26 37c15 0 28 -9 26 -37c-2 -26 -20 -87 -23 -98c12 8 62 42 85 52c26 11 39 1 43 -13z" />
    <glyph glyph-name="braceleft" unicode="{" horiz-adv-x="239" 
d="M209 694c-45 0 -91 -12 -94 -58c-5 -68 60 -125 54 -209c-6 -74 -52 -97 -76 -104c24 -7 70 -30 76 -104c6 -84 -59 -141 -54 -209c3 -46 49 -58 94 -58v-6c-73 0 -118 30 -123 76c-5 43 15 100 40 152c46 98 -6 132 -27 140c-15 6 -20 6 -29 6v6c9 0 14 0 29 6
c21 8 73 42 27 140c-25 52 -45 109 -40 152c5 46 50 76 123 76v-6z" />
    <glyph glyph-name="braceright" unicode="}" horiz-adv-x="239" 
d="M139 332c16 -6 20 -6 30 -6v-6c-10 0 -14 0 -30 -6c-20 -8 -73 -42 -27 -140c25 -52 45 -109 40 -152c-5 -46 -50 -76 -122 -76v6c44 0 90 12 94 58c5 68 -61 125 -54 209c5 74 52 97 76 104c-24 7 -71 30 -76 104c-7 84 59 141 54 209c-4 46 -50 58 -94 58v6
c72 0 117 -30 122 -76c5 -43 -15 -100 -40 -152c-46 -98 7 -132 27 -140z" />
    <glyph glyph-name="sterling" unicode="&#xa3;" horiz-adv-x="617" 
d="M588 141l9 -2c-24 -63 -92 -145 -151 -145c-48 0 -122 42 -185 46c-66 4 -111 -5 -186 -52l-7 6c91 81 135 172 105 277c-7 25 -14 47 -21 67h-122v11h118c-30 89 -50 135 -32 218c24 107 128 144 219 140c126 -6 152 -88 170 -82c7 3 5 15 5 61v14h9v-236h-9v38
c0 95 -35 189 -167 194c-98 4 -169 -65 -164 -153c3 -54 30 -119 49 -194h226v-11h-224c6 -24 10 -49 12 -75c9 -102 -59 -180 -120 -232c28 17 60 37 85 47c33 13 98 32 190 3c100 -32 159 -19 191 60z" />
    <glyph glyph-name="bitcoin" unicode="&#x20bf;" horiz-adv-x="634" 
d="M604 197c0 -129 -96 -190 -251 -196v-119h-12v118h-18h-100v-118h-11v118h-192v8h20c51 0 60 11 60 61v562c0 50 -9 60 -60 60h-20v9h192v118h11v-118h30c32 0 61 -1 88 -4v122h12v-124c115 -14 181 -58 181 -153c0 -85 -60 -130 -161 -148c147 -12 231 -75 231 -196z
M165 688v-294h70c188 0 230 62 230 147s-42 147 -230 147h-70zM305 12c181 0 230 86 230 185c0 98 -43 185 -231 185h-139v-370h140z" />
    <glyph glyph-name="ruble" unicode="&#x20bd;" horiz-adv-x="591" 
d="M279 280h-114v-77h262v-12h-262v-122c0 -50 9 -61 60 -61h55v-8h-260v8h20c51 0 60 11 60 61v122h-80v12h80v77h-80v12h80v339c0 50 -9 60 -60 60h-20v9h259c180 0 282 -69 282 -210s-102 -210 -282 -210zM165 688v-396h96c189 0 231 92 231 198c0 105 -42 198 -231 198
h-96z" />
    <glyph glyph-name="Euro" unicode="&#x20ac;" horiz-adv-x="815" 
d="M778 181l7 -4c-59 -103 -169 -192 -329 -183c-167 10 -320 113 -353 283h-83v12h81c-2 13 -4 27 -4 41c-1 23 0 45 3 67h-80v12h82c30 169 179 303 362 298c151 -4 208 -84 238 -80c13 1 12 22 12 69v13h8v-236h-8v38c0 98 -104 189 -265 186
c-155 -3 -265 -122 -280 -288h363v-12h-364c0 -11 -1 -23 0 -35c0 -26 3 -50 7 -73h287v-12h-284c37 -167 173 -253 311 -261c135 -7 236 69 289 165z" />
    <glyph glyph-name="dollar" unicode="$" horiz-adv-x="606" 
d="M335 402c161 -67 253 -112 233 -238c-16 -97 -108 -168 -233 -171v-111h-12v111c-145 0 -226 79 -253 73c-13 -2 -12 -22 -12 -69v-14h-8v126v110h8v-37c0 -95 116 -170 252 -179h13v326c-13 6 -27 12 -41 18c-145 62 -198 121 -179 221c18 96 138 140 215 137h5v113h12
v-114c109 -10 150 -66 171 -57c8 3 5 14 5 61v14h9v-126v-110h-9v37c0 91 -56 160 -176 171v-292zM155 573c-4 -66 43 -114 168 -167v289h-5c-84 4 -157 -31 -163 -122zM518 145c8 101 -84 140 -183 180v-322c108 1 175 54 183 142z" />
    <glyph glyph-name="yen" unicode="&#xa5;" horiz-adv-x="678" 
d="M478 700h190v-9h-20c-51 0 -59 -15 -86 -59l-183 -340v-8h153v-11h-153v-70h153v-12h-153v-122c0 -50 9 -61 60 -61h20v-8h-225v8h20c51 0 60 11 60 61v122h-153v12h153v70h-153v11h148l-206 347c-28 42 -37 60 -82 60h-11v9h216v-9h-20c-51 0 -59 -14 -33 -60l198 -333
l180 336c22 44 -3 57 -53 57h-20v9z" />
    <glyph glyph-name="cent" unicode="&#xa2;" 
d="M568 309l5 -3c-31 -56 -120 -204 -288 -204h-12v-115h-12v116c-135 9 -227 94 -230 223c-3 139 101 255 230 270v117h12v-116c5 0 11 1 17 1c71 -2 117 -20 156 -47c23 -16 26 -36 16 -49c-13 -17 -42 -10 -63 20c-29 43 -71 66 -126 66v-451c10 -2 20 -3 31 -4
c158 -10 237 127 264 176zM90 345c12 -120 83 -186 171 -206v448c-105 -5 -184 -102 -171 -242z" />
    <glyph glyph-name="currency" unicode="&#xa4;" horiz-adv-x="603" 
d="M563 350c0 -73 -27 -136 -74 -179l73 -74l-8 -8l-74 74c-45 -39 -106 -61 -178 -61s-134 22 -179 61l-74 -74l-8 8l73 74c-47 43 -74 106 -74 179s27 135 74 179l-73 74l8 8l74 -74c45 38 107 61 179 61s133 -23 178 -61l74 74l8 -8l-73 -74c47 -44 74 -106 74 -179z
M302 111c124 0 197 96 197 239s-73 239 -197 239c-125 0 -197 -96 -197 -239s72 -239 197 -239z" />
    <glyph glyph-name="ampersand" unicode="&#x26;" horiz-adv-x="860" 
d="M836 104l4 -4c-38 -48 -89 -106 -156 -106c-64 0 -118 28 -161 61c-37 -26 -79 -46 -124 -56c-129 -29 -300 25 -333 156c-30 123 67 182 167 215c-47 62 -79 118 -83 164c-11 108 73 173 164 173c110 0 171 -82 166 -154c-7 -77 -71 -124 -175 -165
c45 -56 107 -129 192 -217c20 -21 44 -47 71 -70c51 46 88 97 104 123l6 -4c-22 -35 -57 -82 -104 -124c34 -28 72 -54 115 -65c57 -14 97 9 147 73zM328 696c-96 15 -181 -63 -107 -188c12 -22 38 -60 79 -113c80 45 114 95 123 157c9 75 -35 135 -95 144zM403 11
c41 7 79 25 114 48c-29 23 -53 48 -72 68c-75 80 -153 164 -210 239c-77 -29 -143 -84 -100 -211c40 -118 165 -161 268 -144z" />
    <glyph glyph-name="at" unicode="@" horiz-adv-x="1112" 
d="M648 802c337 -23 418 -274 387 -441c-46 -243 -221 -287 -282 -287c-63 0 -122 28 -84 162c1 5 3 10 4 15c-38 -81 -99 -166 -194 -176c-114 -12 -198 69 -174 218c27 162 157 281 276 284c102 3 166 -38 198 -70c0 0 -42 -213 -65 -306c-21 -87 10 -117 57 -114
c79 5 213 72 251 277c31 166 -53 404 -376 426c-205 14 -434 -90 -523 -333c-80 -217 -22 -427 142 -532c191 -122 464 -99 589 13l8 -12c-65 -62 -181 -97 -306 -97c-103 0 -211 25 -301 82c-98 63 -258 247 -147 551c84 234 316 356 540 340zM504 96
c82 10 148 116 182 209c19 81 37 175 37 175c-8 25 -35 79 -117 88c-73 8 -203 -39 -238 -204c-31 -148 22 -283 136 -268z" />
    <glyph glyph-name="AE" unicode="&#xc6;" horiz-adv-x="1026" 
d="M962 198h9v-198h-530v8h20c51 0 60 11 60 61v164h-278l-108 -164c-33 -49 -28 -61 23 -61h20v-8h-168v8h16c46 0 70 21 96 61l381 580c10 14 12 24 7 31c-8 9 -23 11 -49 11h-20v9h512v-198h-8v107c0 51 -11 79 -61 79h-298v-327h203c51 0 61 32 61 83v20h8v-216h-8v19
c0 51 -10 83 -61 83h-203v-339h315c51 0 61 29 61 80v107zM250 245h271v413z" />
    <glyph glyph-name="OE" unicode="&#x152;" horiz-adv-x="1220" 
d="M1152 198h8v-198h-529v8h20c51 0 60 11 60 61v71c-64 -90 -172 -146 -308 -146c-225 0 -373 152 -373 356s148 357 373 357c136 0 244 -57 308 -147v71c0 50 -9 60 -60 60h-20v9h512v-198h-9v107c0 51 -10 79 -61 79h-297v-327h203c50 0 60 32 60 83v20h9v-216h-9v19
c0 51 -10 83 -60 83h-203v-339h315c50 0 61 29 61 80v107zM403 5c186 0 303 141 303 345s-117 345 -303 345s-304 -141 -304 -345s118 -345 304 -345z" />
    <glyph glyph-name="Dcroat" unicode="&#x110;" horiz-adv-x="741" 
d="M323 700c249 0 388 -157 388 -350s-139 -350 -388 -350h-158h-145v8h20c51 0 60 11 60 61v281h-80v11h80v270c0 50 -9 60 -60 60h-20v9h303zM305 12c238 0 336 154 336 338s-98 338 -336 338h-140v-327h214v-11h-214v-338h140z" />
    <glyph glyph-name="Oslash" unicode="&#xd8;" horiz-adv-x="804" 
d="M668 608c68 -64 106 -154 106 -258c0 -204 -148 -356 -372 -356c-105 0 -194 34 -258 90l-69 -69l-8 8l69 69c-68 64 -106 154 -106 258c0 204 147 357 372 357c105 0 193 -35 257 -91l70 69l8 -8zM98 350c0 -92 24 -170 67 -229l467 467c-53 67 -132 107 -230 107
c-186 0 -304 -141 -304 -345zM402 5c186 0 304 141 304 345c0 91 -24 170 -67 229l-467 -467c53 -67 132 -107 230 -107z" />
    <glyph glyph-name="Thorn" unicode="&#xde;" horiz-adv-x="590" 
d="M278 560c180 0 282 -69 282 -210s-102 -210 -282 -210h-114v-71c0 -50 9 -61 60 -61h20v-8h-224v8h20c50 0 59 11 59 61v562c0 50 -9 60 -59 60h-20v9h224v-9h-20c-51 0 -60 -10 -60 -60v-71h114zM261 152c188 0 230 92 230 198c0 105 -42 198 -230 198h-97v-396h97z" />
    <glyph glyph-name="Lslash" unicode="&#x141;" horiz-adv-x="589" 
d="M541 216h8v-216h-529v8h20c51 0 60 11 60 61v155l-80 -32v12l80 31v396c0 50 -9 60 -60 60h-20v9h225v-9h-20c-51 0 -60 -10 -60 -60v-371l214 84v-12l-214 -83v-238h315c51 0 61 29 61 80v125z" />
    <glyph glyph-name="Hbar" unicode="&#x126;" horiz-adv-x="765" 
d="M746 484h-80v-415c0 -50 9 -61 60 -61h20v-8h-225v8h20c51 0 60 11 60 61v281h-436v-281c0 -50 9 -61 60 -61h20v-8h-225v8h20c51 0 60 11 60 61v415h-80v11h80v136c0 50 -9 60 -60 60h-20v9h225v-9h-20c-51 0 -60 -10 -60 -60v-136h436v136c0 50 -9 60 -60 60h-20v9h225
v-9h-20c-51 0 -60 -10 -60 -60v-136h80v-11zM601 361v123h-436v-123h436z" />
    <glyph glyph-name="Eng" unicode="&#x14a;" horiz-adv-x="803" 
d="M558 700h225v-9h-20c-51 0 -87 -10 -87 -60v-631c0 -74 -19 -137 -89 -152c-29 -6 -98 1 -131 11c-24 7 -50 20 -44 40c5 20 20 23 42 11c22 -11 82 -59 130 -51c73 12 81 88 81 141l-527 655v-586c0 -50 36 -61 87 -61h20v-8h-225v8h20c51 0 87 11 87 61v562
c0 50 -36 60 -87 60h-20v9h172l473 -586v517c0 50 -36 60 -87 60h-20v9z" />
    <glyph glyph-name="Tbar" unicode="&#x166;" horiz-adv-x="670" 
d="M50 700h570v-198h-8v107c0 51 -10 79 -61 79h-184v-362h147v-11h-147v-246c0 -50 9 -61 60 -61h20v-8h-224v8h20c50 0 60 11 60 61v246h-148v11h148v362h-184c-51 0 -61 -28 -61 -79v-107h-8v198z" />
    <glyph glyph-name="germandbls" unicode="&#xdf;" horiz-adv-x="675" 
d="M472 350c163 -72 195 -135 178 -214c-15 -74 -82 -142 -189 -142c-157 0 -183 94 -210 88c-13 -2 -12 -22 -12 -69v-13h-8v235h8v-37c0 -95 68 -187 206 -193c102 -5 161 48 164 123c4 87 -96 129 -193 177c-103 52 -112 95 -74 171c57 118 -4 240 -102 218
c-32 -8 -75 -29 -75 -137v-557h-145v8h20c51 0 60 11 60 61v436c0 128 55 186 144 199c151 22 238 -141 134 -227c-83 -68 -32 -73 94 -127z" />
    <glyph glyph-name="ae" unicode="&#xe6;" horiz-adv-x="875" 
d="M910 201l5 -4c-31 -55 -120 -203 -288 -203c-139 0 -239 78 -252 202c-7 -95 -65 -196 -176 -202c-78 -4 -170 32 -173 119c-3 105 90 132 204 151c94 16 127 55 138 77c0 118 -52 142 -118 142c-52 0 -76 -43 -108 -74c-25 -24 -46 -24 -58 -9c-10 12 -4 31 15 43
c42 26 100 48 153 48c90 0 150 -35 171 -111c48 66 125 111 209 111c109 0 194 -72 194 -181h-392c-3 -23 -4 -47 -2 -73c14 -139 107 -205 214 -212c158 -10 237 127 264 176zM615 480c-88 1 -161 -63 -179 -162h327c4 82 -39 161 -148 162zM368 205v124
c-20 -24 -44 -54 -150 -75c-62 -13 -138 -44 -133 -137c4 -79 69 -114 141 -107c82 8 142 106 142 195z" />
    <glyph glyph-name="oe" unicode="&#x153;" horiz-adv-x="997" 
d="M1031 201l6 -4c-31 -55 -120 -203 -288 -203c-106 0 -189 45 -229 121c-43 -75 -125 -121 -228 -121c-155 0 -262 103 -262 248s107 249 262 249c110 0 196 -54 236 -138c45 82 130 138 226 138c109 0 193 -72 193 -181h-391c-4 -23 -4 -47 -2 -73
c13 -139 107 -205 213 -212c159 -10 238 127 264 176zM737 480c-89 1 -161 -63 -180 -162h328c4 82 -40 161 -148 162zM292 3c124 0 197 96 197 239s-73 239 -197 239c-125 0 -197 -96 -197 -239s72 -239 197 -239z" />
    <glyph glyph-name="dcroat" unicode="&#x111;" horiz-adv-x="611" 
d="M581 8h20v-8h-145v111c-21 -65 -95 -115 -168 -117c-154 -4 -258 103 -258 248s104 253 258 249c73 -2 147 -53 168 -118v196h-179v11h179v51c0 50 -9 60 -59 60h-20v9h144v-120h80v-11h-80v-500c0 -50 9 -61 60 -61zM456 154v176c0 74 -73 148 -168 151
c-114 2 -193 -96 -193 -239s79 -242 193 -239c95 3 168 77 168 151z" />
    <glyph glyph-name="oslash" unicode="&#xf8;" horiz-adv-x="572" 
d="M478 421c47 -44 74 -106 74 -179c0 -145 -107 -248 -261 -248c-72 0 -134 22 -179 61l-74 -74l-8 8l73 73c-46 44 -73 107 -73 180c0 145 106 249 261 249c72 0 133 -24 179 -62l74 74l8 -8zM94 242c0 -60 13 -112 37 -152l313 313c-33 49 -86 78 -153 78
c-124 0 -197 -96 -197 -239zM291 3c124 0 197 96 197 239c0 60 -13 112 -37 152l-314 -314c34 -49 86 -77 154 -77z" />
    <glyph glyph-name="thorn" unicode="&#xfe;" horiz-adv-x="612" 
d="M334 491c154 4 258 -104 258 -249s-104 -252 -258 -248c-73 2 -148 52 -169 117v-258c0 -51 9 -61 60 -61h55v-8h-260v8h20c51 0 60 10 60 61v778c0 50 -9 60 -60 60h-20v9h145v-327c21 65 96 116 169 118zM334 3c113 -3 192 96 192 239s-79 241 -192 239
c-96 -3 -169 -77 -169 -151v-176c0 -74 73 -148 169 -151z" />
    <glyph glyph-name="lslash" unicode="&#x142;" horiz-adv-x="254" 
d="M276 287l-112 -48v-170c0 -50 9 -61 60 -61h20v-8h-225v8h20c51 0 60 11 60 61v143l-112 -48v12l112 47v408c0 50 -9 60 -60 60h-20v9h145v-449l112 47v-11z" />
    <glyph glyph-name="hbar" unicode="&#x127;" horiz-adv-x="624" 
d="M594 8h20v-8h-225v8h20c51 0 60 11 60 61v246c0 100 -54 163 -136 163c-100 0 -168 -92 -168 -167v-242c0 -50 9 -61 60 -61h20v-8h-225v8h20c51 0 60 11 60 61v500h-80v11h80v51c0 50 -9 60 -60 60h-20v9h145v-120h179v-11h-179v-201c23 64 89 123 179 123
c114 0 190 -67 190 -189v-233c0 -50 9 -61 60 -61z" />
    <glyph glyph-name="eng" unicode="&#x14b;" horiz-adv-x="613" 
d="M343 491c114 0 190 -67 190 -189v-232c0 -209 -96 -251 -141 -263c-29 -8 -81 -13 -114 -7c-25 4 -47 14 -46 34c2 22 20 26 44 17c23 -7 67 -43 112 -35c53 9 80 55 80 254v245c0 100 -54 163 -136 163c-100 0 -168 -92 -168 -167v-242c0 -50 9 -61 60 -61h20v-8h-224v8
h20c50 0 60 11 60 61v345c0 51 -10 61 -60 61h-20v9h144v-116c23 64 90 123 179 123z" />
    <glyph glyph-name="tbar" unicode="&#x167;" horiz-adv-x="372" 
d="M347 88l5 -5c-16 -19 -61 -89 -126 -89c-89 0 -131 44 -131 148v202h-85v12h85v119h-85v9c75 0 126 73 143 155h7v-155h150v-9h-150v-119h112v-12h-112v-219c0 -96 36 -117 77 -117c57 0 90 55 110 80z" />
    <glyph glyph-name="longs" unicode="&#x17f;" horiz-adv-x="319" 
d="M362 687c19 -8 32 -22 25 -38s-33 -15 -54 3c-23 20 -68 50 -105 42c-32 -8 -58 -29 -58 -137v-488c0 -50 9 -61 60 -61h55v-8h-260v8h20c51 0 60 11 60 61v406h-85v9h85v21c0 128 37 188 127 199c46 5 99 -5 130 -17z" />
    <glyph glyph-name="eth" unicode="&#xf0;" horiz-adv-x="558" 
d="M526 312c21 -227 -130 -312 -239 -318c-166 -9 -245 112 -255 210c-13 129 73 224 184 238c110 13 199 -39 230 -112c-10 156 -77 248 -156 300l-108 -62l-5 10l102 59c-70 44 -147 57 -198 57v9c66 0 142 -20 212 -58l111 64l6 -10l-105 -61c112 -64 207 -174 221 -326z
M255 4c65 -7 201 28 192 272c-3 103 -116 171 -210 147c-89 -23 -134 -102 -131 -220c3 -87 45 -187 149 -199z" />
    <glyph glyph-name="ogonek" unicode="&#x2db;" horiz-adv-x="194" 
d="M170 -103l4 -2c-13 -20 -50 -52 -95 -47c-43 5 -71 34 -52 78c13 30 48 55 76 74h7c-28 -39 -40 -64 -43 -91c-3 -29 10 -48 33 -50c26 -2 53 16 70 38z" />
    <glyph glyph-name="cedilla" unicode="&#xb8;" horiz-adv-x="192" 
d="M111 -49c32 -4 63 -19 60 -52c-4 -40 -49 -54 -87 -54c-21 0 -53 11 -64 28l4 3c8 -13 37 -28 63 -25c24 3 39 21 42 46c3 27 -5 43 -27 46c-18 3 -32 -2 -45 -9l-2 2l23 64h4l-21 -58c12 6 32 10 50 9z" />
    <glyph glyph-name="commaaccent" unicode="&#xf6c3;" horiz-adv-x="130" 
d="M65 -64c26 0 43 -19 44 -43c4 -58 -28 -113 -72 -159l-6 6c34 31 70 99 38 106c-28 6 -49 19 -49 47c0 24 20 43 45 43z" />
    <glyph glyph-name="Aogonek" unicode="&#x104;" horiz-adv-x="737" 
d="M647 0c-28 -39 -40 -64 -43 -91c-3 -29 10 -48 33 -50c26 -2 53 16 70 38l4 -2c-13 -20 -50 -52 -95 -47c-43 5 -71 34 -52 78c13 30 48 55 76 74h-129v8h20c50 0 47 13 27 61l-70 164h-308l-64 -164c-20 -50 -9 -61 42 -61h20v-8h-168v8h16c46 0 62 19 78 61l245 631h11
l268 -631c21 -50 37 -61 87 -61h11v-8h-79zM184 245h299l-156 368z" />
    <glyph glyph-name="grave" unicode="`" horiz-adv-x="197" 
d="M68 683c21 -19 109 -105 109 -105l-3 -4s-106 61 -130 76s-28 29 -19 40c9 12 22 12 43 -7z" />
    <glyph glyph-name="Ccedilla" unicode="&#xc7;" horiz-adv-x="749" 
d="M719 177c-58 -101 -164 -188 -319 -183l-19 -52c12 6 31 10 50 9c32 -4 63 -19 59 -52c-3 -40 -49 -54 -87 -54c-20 0 -52 11 -63 28l4 3c8 -13 37 -28 63 -25c24 3 38 21 42 46c3 27 -5 43 -27 46c-19 3 -32 -2 -45 -9l-2 2l21 58h-6c-184 11 -351 135 -359 336
c-9 205 157 382 368 377c150 -4 207 -84 237 -80c13 1 12 22 12 68v14h9v-236h-9v38c0 98 -104 189 -265 186c-168 -3 -285 -145 -281 -335c4 -223 162 -337 321 -346c136 -7 236 69 289 165z" />
    <glyph glyph-name="Eogonek" unicode="&#x118;" horiz-adv-x="609" 
d="M468 0c-28 -39 -40 -64 -43 -91c-3 -29 10 -48 33 -50c26 -2 53 16 70 38l4 -2c-13 -20 -50 -52 -95 -47c-43 5 -71 34 -52 78c13 30 48 55 76 74h-441v8h20c51 0 60 11 60 61v562c0 50 -9 60 -60 60h-20v9h512v-198h-8v107c0 51 -11 79 -61 79h-298v-327h203
c51 0 61 32 61 83v20h8v-216h-8v19c0 51 -10 83 -61 83h-203v-339h315c51 0 61 29 61 80v107h8v-198h-81z" />
    <glyph glyph-name="Iogonek" unicode="&#x12e;" horiz-adv-x="264" 
d="M224 691c-50 0 -60 -10 -60 -60v-562c0 -50 10 -61 60 -61h20v-8h-99c-28 -39 -41 -64 -43 -91c-3 -29 10 -48 33 -50c26 -2 53 16 70 38l4 -2c-14 -20 -50 -52 -95 -47c-44 5 -71 34 -52 78c12 30 48 55 76 74h-118v8h20c51 0 60 11 60 61v562c0 50 -9 60 -60 60h-20v9
h224v-9h-20z" />
    <glyph glyph-name="Scedilla" unicode="&#x15e;" horiz-adv-x="606" 
d="M327 406c166 -68 261 -113 241 -241c-16 -99 -113 -171 -242 -171l-19 -52c12 7 32 11 50 9c32 -3 63 -18 60 -51c-4 -40 -49 -55 -87 -55c-21 0 -53 12 -64 29l4 3c8 -13 37 -28 63 -25c24 3 39 21 42 46c3 27 -5 43 -27 46c-18 3 -32 -2 -45 -9l-2 2l21 57
c-144 1 -225 79 -252 73c-13 -2 -12 -22 -12 -69v-13h-8v125v110h8v-37c0 -95 116 -170 253 -178c122 -8 199 47 207 141c10 119 -120 152 -236 202c-145 62 -198 121 -179 221c18 96 139 141 215 138c122 -5 166 -69 188 -59c8 4 5 14 5 61v14h9v-126v-110h-9v37
c0 95 -61 166 -193 172c-83 4 -156 -30 -162 -121c-5 -67 43 -116 171 -169z" />
    <glyph glyph-name="Uogonek" unicode="&#x172;" horiz-adv-x="756" 
d="M512 700h224v-9h-19c-51 0 -87 -10 -87 -60v-354c0 -123 -52 -266 -212 -282c-26 -36 -38 -60 -40 -86c-3 -29 10 -48 33 -50c26 -2 53 16 70 38l4 -2c-14 -20 -50 -52 -95 -47c-44 5 -71 34 -52 78c11 27 42 51 68 69c-6 -1 -12 -1 -18 -1c-157 0 -288 86 -288 292v345
c0 50 -9 60 -60 60h-20v9h224v-9h-20c-50 0 -59 -10 -59 -60v-345c0 -198 109 -267 245 -264c124 3 208 102 208 255v354c0 50 -35 60 -86 60h-20v9z" />
    <glyph glyph-name="aogonek" unicode="&#x105;" horiz-adv-x="544" 
d="M463 -141c26 -2 53 16 70 38l3 -2c-13 -20 -49 -52 -94 -47c-44 5 -71 34 -53 78c12 28 52 53 80 71c-6 -2 -12 -3 -19 -3c-50 0 -82 28 -82 87v76c-9 -54 -58 -157 -168 -163c-79 -4 -170 32 -174 119c-3 105 90 132 204 151c94 16 127 55 138 77
c0 118 -52 142 -118 142c-52 0 -76 -43 -108 -74c-25 -24 -46 -24 -58 -9c-10 12 -4 31 15 43c42 26 100 48 153 48c115 0 181 -56 181 -184v-232c0 -51 10 -67 31 -69c23 -3 56 20 76 50l4 -4c-14 -23 -36 -41 -63 -52c-32 -37 -47 -59 -52 -91c-4 -29 12 -48 34 -50z
M368 205v124c-20 -24 -44 -54 -150 -75c-61 -13 -138 -44 -133 -137c4 -79 69 -114 141 -107c82 8 142 106 142 195z" />
    <glyph glyph-name="ccedilla" unicode="&#xe7;" 
d="M573 197c-30 -54 -117 -198 -280 -203l-18 -52c11 6 31 10 49 9c32 -4 63 -19 60 -52c-4 -40 -49 -54 -87 -54c-20 0 -53 11 -64 28l4 3c9 -13 37 -28 63 -25c25 3 39 21 42 46c3 27 -5 43 -27 46c-18 3 -32 -2 -45 -9l-2 2l21 58h-4c-147 0 -251 87 -254 224
c-3 149 117 273 259 273c71 -2 117 -21 157 -48c22 -16 26 -36 15 -49c-13 -17 -42 -10 -63 20c-21 31 -53 63 -126 66c-110 1 -196 -98 -182 -243c13 -139 106 -205 213 -212c158 -10 238 127 264 176z" />
    <glyph glyph-name="eogonek" unicode="&#x119;" 
d="M329 -2c-26 -38 -39 -62 -42 -89c-2 -29 10 -48 34 -50c26 -2 53 16 70 38l3 -2c-13 -20 -49 -52 -94 -47c-44 5 -71 34 -53 78c12 28 44 52 71 70c-11 -1 -22 -2 -33 -2c-148 0 -251 87 -254 224c-4 149 116 273 259 273c109 0 193 -72 193 -181h-391
c-4 -23 -5 -47 -2 -73c13 -139 107 -205 213 -212c158 -10 238 127 264 176l6 -4c-29 -50 -105 -176 -244 -199zM272 480c-88 1 -160 -63 -179 -162h328c3 82 -40 161 -149 162z" />
    <glyph glyph-name="iogonek" unicode="&#x12f;" horiz-adv-x="255" 
d="M127 585c-26 0 -46 20 -46 46c0 25 20 46 46 46c25 0 46 -21 46 -46c0 -26 -21 -46 -46 -46zM145 0c-27 -39 -40 -64 -43 -91c-3 -29 10 -48 33 -50c27 -2 53 16 71 38l3 -2c-13 -20 -49 -52 -94 -47c-44 5 -72 34 -53 78c13 30 48 55 77 74h-119v8h20c51 0 60 11 60 61
v345c0 51 -9 61 -60 61h-20v9h145v-415c0 -50 9 -61 60 -61h20v-8h-100z" />
    <glyph glyph-name="scedilla" unicode="&#x15f;" horiz-adv-x="442" 
d="M230 285c77 -33 202 -65 191 -164c-10 -88 -95 -130 -189 -127l-18 -52c11 6 31 10 50 9c31 -4 62 -19 59 -52c-4 -40 -49 -54 -87 -54c-20 0 -53 11 -64 28l4 3c9 -13 37 -28 63 -25c25 3 39 21 42 46c3 27 -5 43 -27 46c-18 3 -32 -2 -44 -9l-3 2l21 58
c-104 5 -149 60 -174 56c-14 -3 -17 -23 -17 -44v-15h-7v201h7v-38c0 -100 111 -146 183 -149c77 -4 152 26 156 90c4 62 -61 88 -157 125c-108 42 -173 84 -159 169c15 88 131 103 163 102c101 -3 126 -43 145 -44c12 0 14 14 14 28v19h6v-201h-6v38c0 92 -41 145 -160 149
c-53 2 -122 -28 -121 -90c0 -56 62 -76 129 -105z" />
    <glyph glyph-name="uogonek" unicode="&#x173;" horiz-adv-x="614" 
d="M523 0c-27 -39 -40 -64 -43 -91c-3 -29 10 -48 33 -50c27 -2 53 16 71 38l3 -2c-13 -20 -50 -52 -94 -47s-72 34 -53 78c13 30 48 55 77 74h-58v111c-20 -62 -74 -117 -161 -117c-119 0 -208 59 -208 187v233c0 51 -9 61 -60 61h-20v9h145v-315c0 -106 65 -163 156 -163
c99 0 148 91 148 167v241c0 51 -9 61 -60 61h-20v9h145v-415c0 -50 9 -61 60 -61h20v-8h-81z" />
    <glyph glyph-name="acute" unicode="&#xb4;" horiz-adv-x="197" 
d="M172 690c9 -11 5 -25 -19 -40s-130 -76 -130 -76l-3 4s87 86 109 105c21 19 34 19 43 7z" />
    <glyph glyph-name="macron" unicode="&#xaf;" horiz-adv-x="381" 
d="M20 662h341v-12h-341v12z" />
    <glyph glyph-name="dieresis" unicode="&#xa8;" horiz-adv-x="296" 
d="M71 700c28 0 50 -22 50 -49s-22 -49 -50 -49s-51 22 -51 49s23 49 51 49zM225 700c28 0 51 -22 51 -49s-23 -49 -51 -49s-50 22 -50 49s22 49 50 49z" />
    <glyph glyph-name="breve" unicode="&#x2d8;" horiz-adv-x="264" 
d="M237 708h7c-2 -51 -44 -108 -112 -108s-110 57 -112 108h7c12 -41 45 -65 105 -65s92 24 105 65z" />
    <glyph glyph-name="dotaccent" unicode="&#x2d9;" horiz-adv-x="141" 
d="M70 700c28 0 51 -22 51 -49s-23 -49 -51 -49s-50 22 -50 49s22 49 50 49z" />
    <glyph glyph-name="tilde" unicode="&#x2dc;" horiz-adv-x="353" 
d="M325 707l8 -2c-13 -43 -56 -87 -97 -87s-106 37 -145 41c-29 3 -45 -4 -62 -48l-9 3s16 45 42 63c25 18 61 32 139 4c78 -27 112 -17 124 26z" />
    <glyph glyph-name="circumflex" unicode="&#x2c6;" horiz-adv-x="333" 
d="M167 713l146 -122l-3 -6l-143 78l-143 -78l-4 6z" />
    <glyph glyph-name="ring" unicode="&#x2da;" horiz-adv-x="229" 
d="M115 752c48 0 94 -35 94 -88c0 -52 -46 -87 -94 -87c-49 0 -95 35 -95 87c0 53 46 88 95 88zM115 583c34 0 58 31 58 81s-24 82 -58 82c-35 0 -59 -32 -59 -82s24 -81 59 -81z" />
    <glyph glyph-name="caron" unicode="&#x2c7;" horiz-adv-x="333" 
d="M309 710l4 -6l-147 -122l-146 122l3 6l143 -78z" />
    <glyph glyph-name="hungarumlaut" unicode="&#x2dd;" horiz-adv-x="286" 
d="M139 707c11 -9 11 -23 -8 -43c-20 -21 -108 -107 -108 -107l-3 3s63 105 78 129c16 24 29 27 41 18zM257 707c12 -9 12 -23 -8 -43c-19 -21 -107 -107 -107 -107l-3 3s63 105 78 129c16 24 29 27 40 18z" />
    <glyph glyph-name="Eth" unicode="&#xd0;" horiz-adv-x="741" 
d="M323 700c249 0 388 -157 388 -350s-139 -350 -388 -350h-158h-145v8h20c51 0 60 11 60 61v281h-80v11h80v270c0 50 -9 60 -60 60h-20v9h303zM305 12c238 0 336 154 336 338s-98 338 -336 338h-140v-327h214v-11h-214v-338h140z" />
    <glyph glyph-name="fraction" unicode="&#x2044;" horiz-adv-x="279" 
d="M248 700h11l-227 -700h-12z" />
    <glyph glyph-name="Aacute" unicode="&#xc1;" horiz-adv-x="737" 
d="M716 8h11v-8h-216v8h20c51 0 48 13 27 61l-69 164h-309l-64 -164c-19 -50 -8 -61 43 -61h20v-8h-169v8h17c45 0 61 19 78 61l244 631h12l267 -631c22 -49 37 -61 88 -61zM185 245h299l-157 368zM430 890c9 -11 5 -25 -19 -40s-130 -76 -130 -76l-3 4s87 86 109 105
c21 19 34 19 43 7z" />
    <glyph glyph-name="Abreve" unicode="&#x102;" horiz-adv-x="737" 
d="M716 8h11v-8h-216v8h20c51 0 48 13 27 61l-69 164h-309l-64 -164c-19 -50 -8 -61 43 -61h20v-8h-169v8h17c45 0 61 19 78 61l244 631h12l267 -631c22 -49 37 -61 88 -61zM185 245h299l-157 368zM463 908h7c-2 -51 -44 -108 -112 -108s-110 57 -112 108h7
c12 -41 45 -65 105 -65s92 24 105 65z" />
    <glyph glyph-name="Acircumflex" unicode="&#xc2;" horiz-adv-x="737" 
d="M716 8h11v-8h-216v8h20c51 0 48 13 27 61l-69 164h-309l-64 -164c-19 -50 -8 -61 43 -61h20v-8h-169v8h17c45 0 61 19 78 61l244 631h12l267 -631c22 -49 37 -61 88 -61zM185 245h299l-157 368zM359 913l146 -122l-3 -6l-143 78l-143 -78l-4 6z" />
    <glyph glyph-name="Agrave" unicode="&#xc0;" horiz-adv-x="737" 
d="M716 8h11v-8h-216v8h20c51 0 48 13 27 61l-69 164h-309l-64 -164c-19 -50 -8 -61 43 -61h20v-8h-169v8h17c45 0 61 19 78 61l244 631h12l267 -631c22 -49 37 -61 88 -61zM185 245h299l-157 368zM330 883c21 -19 109 -105 109 -105l-3 -4s-106 61 -130 76s-28 29 -19 40
c9 12 22 12 43 -7z" />
    <glyph glyph-name="Adieresis" unicode="&#xc4;" horiz-adv-x="737" 
d="M716 8h11v-8h-216v8h20c51 0 48 13 27 61l-69 164h-309l-64 -164c-19 -50 -8 -61 43 -61h20v-8h-169v8h17c45 0 61 19 78 61l244 631h12l267 -631c22 -49 37 -61 88 -61zM185 245h299l-157 368zM281 900c28 0 50 -22 50 -49s-22 -49 -50 -49s-51 22 -51 49s23 49 51 49z
M435 900c28 0 51 -22 51 -49s-23 -49 -51 -49s-50 22 -50 49s22 49 50 49z" />
    <glyph glyph-name="Amacron" unicode="&#x100;" horiz-adv-x="737" 
d="M716 8h11v-8h-216v8h20c51 0 48 13 27 61l-69 164h-309l-64 -164c-19 -50 -8 -61 43 -61h20v-8h-169v8h17c45 0 61 19 78 61l244 631h12l267 -631c22 -49 37 -61 88 -61zM185 245h299l-157 368zM188 862h341v-12h-341v12z" />
    <glyph glyph-name="Aring" unicode="&#xc5;" horiz-adv-x="737" 
d="M716 8h11v-8h-216v8h20c51 0 48 13 27 61l-69 164h-309l-64 -164c-19 -50 -8 -61 43 -61h20v-8h-169v8h17c45 0 61 19 78 61l244 631h12l267 -631c22 -49 37 -61 88 -61zM185 245h299l-157 368zM359 952c48 0 94 -35 94 -88c0 -52 -46 -87 -94 -87c-49 0 -95 35 -95 87
c0 53 46 88 95 88zM359 783c34 0 58 31 58 81s-24 82 -58 82c-35 0 -59 -32 -59 -82s24 -81 59 -81z" />
    <glyph glyph-name="Atilde" unicode="&#xc3;" horiz-adv-x="737" 
d="M716 8h11v-8h-216v8h20c51 0 48 13 27 61l-69 164h-309l-64 -164c-19 -50 -8 -61 43 -61h20v-8h-169v8h17c45 0 61 19 78 61l244 631h12l267 -631c22 -49 37 -61 88 -61zM185 245h299l-157 368zM507 907l8 -2c-13 -43 -56 -87 -97 -87s-106 37 -145 41
c-29 3 -45 -4 -62 -48l-9 3s16 45 42 63c25 18 61 32 139 4c78 -27 112 -17 124 26z" />
    <glyph glyph-name="AEacute" unicode="&#x1fc;" horiz-adv-x="1021" 
d="M962 198h9v-198h-530v8h20c51 0 60 11 60 61v164h-278l-108 -164c-33 -49 -28 -61 23 -61h20v-8h-168v8h16c46 0 70 21 96 61l381 580c10 14 12 24 7 31c-8 9 -23 11 -49 11h-20v9h512v-198h-8v107c0 51 -11 79 -61 79h-298v-327h203c51 0 61 32 61 83v20h8v-216h-8v19
c0 51 -10 83 -61 83h-203v-339h315c51 0 61 29 61 80v107zM250 245h271v413zM712 890c9 -11 5 -25 -19 -40s-130 -76 -130 -76l-3 4s87 86 109 105c21 19 34 19 43 7z" />
    <glyph glyph-name="Cacute" unicode="&#x106;" horiz-adv-x="749" 
d="M712 181l7 -4c-59 -103 -169 -192 -329 -183c-184 11 -350 135 -359 336c-9 205 157 382 368 377c150 -5 207 -84 238 -81c12 2 11 23 11 69v14h9v-236h-9v38c0 98 -104 189 -265 186c-168 -4 -285 -145 -281 -335c4 -223 162 -337 321 -346c136 -7 236 69 289 165z
M446 890c9 -11 5 -25 -19 -40s-130 -76 -130 -76l-3 4s87 86 109 105c21 19 34 19 43 7z" />
    <glyph glyph-name="Ccaron" unicode="&#x10c;" horiz-adv-x="749" 
d="M712 181l7 -4c-59 -103 -169 -192 -329 -183c-184 11 -350 135 -359 336c-9 205 157 382 368 377c150 -5 207 -84 238 -81c12 2 11 23 11 69v14h9v-236h-9v38c0 98 -104 189 -265 186c-168 -4 -285 -145 -281 -335c4 -223 162 -337 321 -346c136 -7 236 69 289 165z
M527 910l4 -6l-147 -122l-146 122l3 6l143 -78z" />
    <glyph glyph-name="Ccircumflex" unicode="&#x108;" horiz-adv-x="749" 
d="M712 181l7 -4c-59 -103 -169 -192 -329 -183c-184 11 -350 135 -359 336c-9 205 157 382 368 377c150 -5 207 -84 238 -81c12 2 11 23 11 69v14h9v-236h-9v38c0 98 -104 189 -265 186c-168 -4 -285 -145 -281 -335c4 -223 162 -337 321 -346c136 -7 236 69 289 165z
M375 913l146 -122l-3 -6l-143 78l-143 -78l-4 6z" />
    <glyph glyph-name="Cdotaccent" unicode="&#x10a;" horiz-adv-x="749" 
d="M712 181l7 -4c-59 -103 -169 -192 -329 -183c-184 11 -350 135 -359 336c-9 205 157 382 368 377c150 -5 207 -84 238 -81c12 2 11 23 11 69v14h9v-236h-9v38c0 98 -104 189 -265 186c-168 -4 -285 -145 -281 -335c4 -223 162 -337 321 -346c136 -7 236 69 289 165z
M394 900c28 0 51 -22 51 -49s-23 -49 -51 -49s-50 22 -50 49s22 49 50 49z" />
    <glyph glyph-name="Dcaron" unicode="&#x10e;" horiz-adv-x="740" 
d="M322 700c249 0 388 -157 388 -350s-139 -350 -388 -350h-158h-144v8h19c51 0 60 11 60 61v561c0 51 -9 61 -60 61h-19v9h302zM304 12c238 0 335 154 335 338s-97 338 -335 338h-140v-676h140zM497 910l4 -6l-147 -122l-146 122l3 6l143 -78z" />
    <glyph glyph-name="Eacute" unicode="&#xc9;" horiz-adv-x="609" 
d="M540 198h9v-198h-529v8h20c51 0 60 11 60 61v561c0 51 -9 61 -60 61h-20v9h511v-198h-8v107c0 51 -10 79 -61 79h-297v-327h202c51 0 61 32 61 83v20h9v-216h-9v19c0 51 -10 83 -61 83h-202v-338h315c50 0 60 28 60 79v107zM376 890c9 -11 5 -25 -19 -40
s-130 -76 -130 -76l-3 4s87 86 109 105c21 19 34 19 43 7z" />
    <glyph glyph-name="Ebreve" unicode="&#x114;" horiz-adv-x="609" 
d="M540 198h9v-198h-529v8h20c51 0 60 11 60 61v561c0 51 -9 61 -60 61h-20v9h511v-198h-8v107c0 51 -10 79 -61 79h-297v-327h202c51 0 61 32 61 83v20h9v-216h-9v19c0 51 -10 83 -61 83h-202v-338h315c50 0 60 28 60 79v107zM409 908h7c-2 -51 -44 -108 -112 -108
s-110 57 -112 108h7c12 -41 45 -65 105 -65s92 24 105 65z" />
    <glyph glyph-name="Ecaron" unicode="&#x11a;" horiz-adv-x="609" 
d="M540 198h9v-198h-529v8h20c51 0 60 11 60 61v561c0 51 -9 61 -60 61h-20v9h511v-198h-8v107c0 51 -10 79 -61 79h-297v-327h202c51 0 61 32 61 83v20h9v-216h-9v19c0 51 -10 83 -61 83h-202v-338h315c50 0 60 28 60 79v107zM447 910l4 -6l-147 -122l-146 122l3 6l143 -78
z" />
    <glyph glyph-name="Ecircumflex" unicode="&#xca;" horiz-adv-x="609" 
d="M540 198h9v-198h-529v8h20c51 0 60 11 60 61v561c0 51 -9 61 -60 61h-20v9h511v-198h-8v107c0 51 -10 79 -61 79h-297v-327h202c51 0 61 32 61 83v20h9v-216h-9v19c0 51 -10 83 -61 83h-202v-338h315c50 0 60 28 60 79v107zM305 913l146 -122l-3 -6l-143 78l-143 -78
l-4 6z" />
    <glyph glyph-name="Edieresis" unicode="&#xcb;" horiz-adv-x="609" 
d="M540 198h9v-198h-529v8h20c51 0 60 11 60 61v561c0 51 -9 61 -60 61h-20v9h511v-198h-8v107c0 51 -10 79 -61 79h-297v-327h202c51 0 61 32 61 83v20h9v-216h-9v19c0 51 -10 83 -61 83h-202v-338h315c50 0 60 28 60 79v107zM227 900c28 0 50 -22 50 -49s-22 -49 -50 -49
s-51 22 -51 49s23 49 51 49zM381 900c28 0 51 -22 51 -49s-23 -49 -51 -49s-50 22 -50 49s22 49 50 49z" />
    <glyph glyph-name="Edotaccent" unicode="&#x116;" horiz-adv-x="609" 
d="M540 198h9v-198h-529v8h20c51 0 60 11 60 61v561c0 51 -9 61 -60 61h-20v9h511v-198h-8v107c0 51 -10 79 -61 79h-297v-327h202c51 0 61 32 61 83v20h9v-216h-9v19c0 51 -10 83 -61 83h-202v-338h315c50 0 60 28 60 79v107zM304 900c28 0 51 -22 51 -49s-23 -49 -51 -49
s-50 22 -50 49s22 49 50 49z" />
    <glyph glyph-name="Egrave" unicode="&#xc8;" horiz-adv-x="609" 
d="M540 198h9v-198h-529v8h20c51 0 60 11 60 61v561c0 51 -9 61 -60 61h-20v9h511v-198h-8v107c0 51 -10 79 -61 79h-297v-327h202c51 0 61 32 61 83v20h9v-216h-9v19c0 51 -10 83 -61 83h-202v-338h315c50 0 60 28 60 79v107zM276 883c21 -19 109 -105 109 -105l-3 -4
s-106 61 -130 76s-28 29 -19 40c9 12 22 12 43 -7z" />
    <glyph glyph-name="Emacron" unicode="&#x112;" horiz-adv-x="609" 
d="M540 198h9v-198h-529v8h20c51 0 60 11 60 61v561c0 51 -9 61 -60 61h-20v9h511v-198h-8v107c0 51 -10 79 -61 79h-297v-327h202c51 0 61 32 61 83v20h9v-216h-9v19c0 51 -10 83 -61 83h-202v-338h315c50 0 60 28 60 79v107zM134 862h341v-12h-341v12z" />
    <glyph glyph-name="Gbreve" unicode="&#x11e;" horiz-adv-x="775" 
d="M445 332h310v-8h-2c-51 0 -60 -10 -60 -61v-263h-8v72c0 9 -2 13 -9 15c-28 7 -82 -93 -252 -93c-196 0 -384 134 -393 334c-9 210 161 379 366 379c163 0 214 -87 245 -81c12 2 11 22 11 69v13h9v-235h-9v37c0 98 -102 190 -261 186c-168 -4 -295 -140 -288 -346
c6 -201 146 -345 320 -345c112 0 168 47 206 96v162c0 51 -9 61 -60 61h-125v8zM507 908h7c-2 -51 -44 -108 -112 -108s-110 57 -112 108h7c12 -41 45 -65 105 -65s92 24 105 65z" />
    <glyph glyph-name="Gcircumflex" unicode="&#x11c;" horiz-adv-x="775" 
d="M445 332h310v-8h-2c-51 0 -60 -10 -60 -61v-263h-8v72c0 9 -2 13 -9 15c-28 7 -82 -93 -252 -93c-196 0 -384 134 -393 334c-9 210 161 379 366 379c163 0 214 -87 245 -81c12 2 11 22 11 69v13h9v-235h-9v37c0 98 -102 190 -261 186c-168 -4 -295 -140 -288 -346
c6 -201 146 -345 320 -345c112 0 168 47 206 96v162c0 51 -9 61 -60 61h-125v8zM403 913l146 -122l-3 -6l-143 78l-143 -78l-4 6z" />
    <glyph glyph-name="Gcommaaccent" unicode="&#x122;" horiz-adv-x="775" 
d="M445 332h310v-8h-2c-51 0 -60 -10 -60 -61v-263h-8v72c0 9 -2 13 -9 15c-28 7 -82 -93 -252 -93c-196 0 -384 134 -393 334c-9 210 161 379 366 379c163 0 214 -87 245 -81c12 2 11 22 11 69v13h9v-235h-9v37c0 98 -102 190 -261 186c-168 -4 -295 -140 -288 -346
c6 -201 146 -345 320 -345c112 0 168 47 206 96v162c0 51 -9 61 -60 61h-125v8zM411 -64c26 0 43 -19 44 -43c4 -58 -28 -113 -72 -159l-6 6c34 31 70 99 38 106c-28 6 -49 19 -49 47c0 24 20 43 45 43z" />
    <glyph glyph-name="Gdotaccent" unicode="&#x120;" horiz-adv-x="775" 
d="M445 332h310v-8h-2c-51 0 -60 -10 -60 -61v-263h-8v72c0 9 -2 13 -9 15c-28 7 -82 -93 -252 -93c-196 0 -384 134 -393 334c-9 210 161 379 366 379c163 0 214 -87 245 -81c12 2 11 22 11 69v13h9v-235h-9v37c0 98 -102 190 -261 186c-168 -4 -295 -140 -288 -346
c6 -201 146 -345 320 -345c112 0 168 47 206 96v162c0 51 -9 61 -60 61h-125v8zM402 900c28 0 51 -22 51 -49s-23 -49 -51 -49s-50 22 -50 49s22 49 50 49z" />
    <glyph glyph-name="Hcircumflex" unicode="&#x124;" horiz-adv-x="765" 
d="M725 691c-51 0 -60 -10 -60 -61v-561c0 -50 9 -61 60 -61h20v-8h-225v8h20c51 0 60 11 60 61v281h-436v-281c0 -50 9 -61 60 -61h20v-8h-224v8h19c51 0 60 11 60 61v561c0 51 -9 61 -60 61h-19v9h224v-9h-20c-51 0 -60 -10 -60 -61v-269h436v269c0 51 -9 61 -60 61h-20v9
h225v-9h-20zM383 913l146 -122l-3 -6l-143 78l-143 -78l-4 6z" />
    <glyph glyph-name="Iacute" unicode="&#xcd;" horiz-adv-x="264" 
d="M224 691c-51 0 -60 -10 -60 -61v-561c0 -50 9 -61 60 -61h20v-8h-224v8h20c51 0 60 11 60 61v561c0 51 -9 61 -60 61h-20v9h224v-9h-20zM203 890c9 -11 5 -25 -19 -40s-130 -76 -130 -76l-3 4s87 86 109 105c21 19 34 19 43 7z" />
    <glyph glyph-name="Ibreve" unicode="&#x12c;" horiz-adv-x="264" 
d="M224 691c-51 0 -60 -10 -60 -61v-561c0 -50 9 -61 60 -61h20v-8h-224v8h20c51 0 60 11 60 61v561c0 51 -9 61 -60 61h-20v9h224v-9h-20zM237 908h7c-2 -51 -44 -108 -112 -108s-110 57 -112 108h7c12 -41 45 -65 105 -65s92 24 105 65z" />
    <glyph glyph-name="Icircumflex" unicode="&#xce;" horiz-adv-x="264" 
d="M224 691c-51 0 -60 -10 -60 -61v-561c0 -50 9 -61 60 -61h20v-8h-224v8h20c51 0 60 11 60 61v561c0 51 -9 61 -60 61h-20v9h224v-9h-20zM133 913l146 -122l-3 -6l-143 78l-143 -78l-4 6z" />
    <glyph glyph-name="Idieresis" unicode="&#xcf;" horiz-adv-x="264" 
d="M224 691c-51 0 -60 -10 -60 -61v-561c0 -50 9 -61 60 -61h20v-8h-224v8h20c51 0 60 11 60 61v561c0 51 -9 61 -60 61h-20v9h224v-9h-20zM55 900c28 0 50 -22 50 -49s-22 -49 -50 -49s-51 22 -51 49s23 49 51 49zM209 900c28 0 51 -22 51 -49s-23 -49 -51 -49
s-50 22 -50 49s22 49 50 49z" />
    <glyph glyph-name="Idotaccent" unicode="&#x130;" horiz-adv-x="264" 
d="M224 691c-51 0 -60 -10 -60 -61v-561c0 -50 9 -61 60 -61h20v-8h-224v8h20c51 0 60 11 60 61v561c0 51 -9 61 -60 61h-20v9h224v-9h-20zM131 900c28 0 51 -22 51 -49s-23 -49 -51 -49s-50 22 -50 49s22 49 50 49z" />
    <glyph glyph-name="Igrave" unicode="&#xcc;" horiz-adv-x="264" 
d="M224 691c-51 0 -60 -10 -60 -61v-561c0 -50 9 -61 60 -61h20v-8h-224v8h20c51 0 60 11 60 61v561c0 51 -9 61 -60 61h-20v9h224v-9h-20zM103 883c21 -19 109 -105 109 -105l-3 -4s-106 61 -130 76s-28 29 -19 40c9 12 22 12 43 -7z" />
    <glyph glyph-name="Imacron" unicode="&#x12a;" horiz-adv-x="264" 
d="M224 691c-51 0 -60 -10 -60 -61v-561c0 -50 9 -61 60 -61h20v-8h-224v8h20c51 0 60 11 60 61v561c0 51 -9 61 -60 61h-20v9h224v-9h-20zM-38 862h341v-12h-341v12z" />
    <glyph glyph-name="Itilde" unicode="&#x128;" horiz-adv-x="264" 
d="M224 691c-51 0 -60 -10 -60 -61v-561c0 -50 9 -61 60 -61h20v-8h-224v8h20c51 0 60 11 60 61v561c0 51 -9 61 -60 61h-20v9h224v-9h-20zM281 907l8 -2c-13 -43 -56 -87 -97 -87s-106 37 -145 41c-29 3 -45 -4 -62 -48l-9 3s16 45 42 63c25 18 61 32 139 4
c78 -27 112 -17 124 26z" />
    <glyph glyph-name="IJ" unicode="&#x132;" horiz-adv-x="601" 
d="M224 691c-51 0 -60 -10 -60 -61v-561c0 -50 9 -61 60 -61h20v-8h-224v8h20c51 0 60 11 60 61v561c0 51 -9 61 -60 61h-20v9h224v-9h-20zM304 700h277v-9h-20c-51 0 -60 -10 -60 -61v-516c0 -209 -113 -254 -159 -266c-29 -8 -98 -13 -131 -7c-25 4 -47 14 -46 34
c2 22 20 26 44 18c23 -8 85 -44 130 -36c52 9 97 51 97 250v523c0 51 -9 61 -60 61h-72v9z" />
    <glyph glyph-name="Jcircumflex" unicode="&#x134;" horiz-adv-x="327" 
d="M30 700h277v-9h-20c-51 0 -60 -10 -60 -61v-516c0 -209 -113 -254 -159 -266c-29 -8 -98 -13 -131 -7c-25 4 -47 14 -46 34c2 22 20 26 44 18c23 -8 85 -44 130 -36c52 9 97 51 97 250v523c0 51 -9 61 -60 61h-72v9zM149 913l146 -122l-3 -6l-143 78l-143 -78l-4 6z" />
    <glyph glyph-name="Kcommaaccent" unicode="&#x136;" horiz-adv-x="723" 
d="M685 8h28v-8h-224v8h11c51 0 56 14 25 61l-232 326l-129 -146v-180c0 -50 9 -61 60 -61h20v-8h-224v8h20c50 0 59 11 59 61v561c0 51 -9 61 -59 61h-20v9h224v-9h-20c-51 0 -60 -10 -60 -61v-368l331 376c30 35 19 53 -31 53h-22v9h189v-9h-20c-51 0 -74 -23 -111 -61
l-165 -187l261 -374c32 -41 44 -61 89 -61zM355 -64c26 0 43 -19 44 -43c4 -58 -28 -113 -72 -159l-6 6c34 31 70 99 38 106c-28 6 -49 19 -49 47c0 24 20 43 45 43z" />
    <glyph glyph-name="Lacute" unicode="&#x139;" horiz-adv-x="589" 
d="M541 216h8v-216h-529v8h20c51 0 60 11 60 61v561c0 51 -9 61 -60 61h-20v9h225v-9h-20c-51 0 -60 -10 -60 -61v-618h315c50 0 61 28 61 79v125zM196 890c9 -11 5 -25 -19 -40s-130 -76 -130 -76l-3 4s87 86 109 105c21 19 34 19 43 7z" />
    <glyph glyph-name="Lcaron" unicode="&#x13d;" horiz-adv-x="589" 
d="M541 216h8v-216h-529v8h20c51 0 60 11 60 61v561c0 51 -9 61 -60 61h-20v9h225v-9h-20c-51 0 -60 -10 -60 -61v-618h315c50 0 61 28 61 79v125zM405 707c26 0 43 -19 44 -43c4 -58 -28 -113 -72 -159l-6 6c34 31 70 99 38 106c-28 6 -49 19 -49 47c0 24 20 43 45 43z" />
    <glyph glyph-name="Lcommaaccent" unicode="&#x13b;" horiz-adv-x="589" 
d="M541 216h8v-216h-529v8h20c51 0 60 11 60 61v561c0 51 -9 61 -60 61h-20v9h225v-9h-20c-51 0 -60 -10 -60 -61v-618h315c50 0 61 28 61 79v125zM283 -64c26 0 43 -19 44 -43c4 -58 -28 -113 -72 -159l-6 6c34 31 70 99 38 106c-28 6 -49 19 -49 47c0 24 20 43 45 43z" />
    <glyph glyph-name="Ldot" unicode="&#x13f;" horiz-adv-x="589" 
d="M384 431c28 0 51 -22 51 -49s-23 -49 -51 -49s-51 22 -51 49s23 49 51 49zM541 216h8v-216h-529v8h20c51 0 60 11 60 61v561c0 51 -9 61 -60 61h-20v9h225v-9h-20c-51 0 -60 -10 -60 -61v-618h315c50 0 61 28 61 79v125z" />
    <glyph glyph-name="Nacute" unicode="&#x143;" horiz-adv-x="802" 
d="M558 700h224v-9h-20c-50 0 -86 -10 -86 -60v-631h-12l-526 655v-586c0 -50 36 -61 86 -61h20v-8h-224v8h20c51 0 86 11 86 61v562c0 50 -35 60 -86 60h-20v9h172l472 -586v517c0 50 -35 60 -86 60h-20v9zM482 890c9 -11 5 -25 -19 -40s-130 -76 -130 -76l-3 4
s87 86 109 105c21 19 34 19 43 7z" />
    <glyph glyph-name="Ncaron" unicode="&#x147;" horiz-adv-x="802" 
d="M558 700h224v-9h-20c-50 0 -86 -10 -86 -60v-631h-12l-526 655v-586c0 -50 36 -61 86 -61h20v-8h-224v8h20c51 0 86 11 86 61v562c0 50 -35 60 -86 60h-20v9h172l472 -586v517c0 50 -35 60 -86 60h-20v9zM553 910l4 -6l-147 -122l-146 122l3 6l143 -78z" />
    <glyph glyph-name="Ncommaaccent" unicode="&#x145;" horiz-adv-x="802" 
d="M558 700h224v-9h-20c-50 0 -86 -10 -86 -60v-631h-12l-526 655v-586c0 -50 36 -61 86 -61h20v-8h-224v8h20c51 0 86 11 86 61v562c0 50 -35 60 -86 60h-20v9h172l472 -586v517c0 50 -35 60 -86 60h-20v9zM409 -64c26 0 43 -19 44 -43c4 -58 -28 -113 -72 -159l-6 6
c34 31 70 99 38 106c-28 6 -49 19 -49 47c0 24 20 43 45 43z" />
    <glyph glyph-name="Ntilde" unicode="&#xd1;" horiz-adv-x="802" 
d="M558 700h224v-9h-20c-50 0 -86 -10 -86 -60v-631h-12l-526 655v-586c0 -50 36 -61 86 -61h20v-8h-224v8h20c51 0 86 11 86 61v562c0 50 -35 60 -86 60h-20v9h172l472 -586v517c0 50 -35 60 -86 60h-20v9zM559 907l8 -2c-13 -43 -56 -87 -97 -87s-106 37 -145 41
c-29 3 -45 -4 -62 -48l-9 3s16 45 42 63c25 18 61 32 139 4c78 -27 112 -17 124 26z" />
    <glyph glyph-name="Oacute" unicode="&#xd3;" horiz-adv-x="804" 
d="M402 707c224 0 372 -153 372 -357s-148 -356 -372 -356c-225 0 -372 152 -372 356s147 357 372 357zM402 5c186 0 304 141 304 345s-118 345 -304 345s-304 -141 -304 -345s118 -345 304 -345zM473 890c9 -11 5 -25 -19 -40s-130 -76 -130 -76l-3 4s87 86 109 105
c21 19 34 19 43 7z" />
    <glyph glyph-name="Obreve" unicode="&#x14e;" horiz-adv-x="804" 
d="M402 707c224 0 372 -153 372 -357s-148 -356 -372 -356c-225 0 -372 152 -372 356s147 357 372 357zM402 5c186 0 304 141 304 345s-118 345 -304 345s-304 -141 -304 -345s118 -345 304 -345zM507 908h7c-2 -51 -44 -108 -112 -108s-110 57 -112 108h7
c12 -41 45 -65 105 -65s92 24 105 65z" />
    <glyph glyph-name="Ocircumflex" unicode="&#xd4;" horiz-adv-x="804" 
d="M402 707c224 0 372 -153 372 -357s-148 -356 -372 -356c-225 0 -372 152 -372 356s147 357 372 357zM402 5c186 0 304 141 304 345s-118 345 -304 345s-304 -141 -304 -345s118 -345 304 -345zM402 913l146 -122l-3 -6l-143 78l-143 -78l-4 6z" />
    <glyph glyph-name="Odieresis" unicode="&#xd6;" horiz-adv-x="804" 
d="M402 707c224 0 372 -153 372 -357s-148 -356 -372 -356c-225 0 -372 152 -372 356s147 357 372 357zM402 5c186 0 304 141 304 345s-118 345 -304 345s-304 -141 -304 -345s118 -345 304 -345zM325 900c28 0 50 -22 50 -49s-22 -49 -50 -49s-51 22 -51 49s23 49 51 49z
M479 900c28 0 51 -22 51 -49s-23 -49 -51 -49s-50 22 -50 49s22 49 50 49z" />
    <glyph glyph-name="Ograve" unicode="&#xd2;" horiz-adv-x="804" 
d="M402 707c224 0 372 -153 372 -357s-148 -356 -372 -356c-225 0 -372 152 -372 356s147 357 372 357zM402 5c186 0 304 141 304 345s-118 345 -304 345s-304 -141 -304 -345s118 -345 304 -345zM373 883c21 -19 109 -105 109 -105l-3 -4s-106 61 -130 76s-28 29 -19 40
c9 12 22 12 43 -7z" />
    <glyph glyph-name="Ohungarumlaut" unicode="&#x150;" horiz-adv-x="804" 
d="M402 707c224 0 372 -153 372 -357s-148 -356 -372 -356c-225 0 -372 152 -372 356s147 357 372 357zM402 5c186 0 304 141 304 345s-118 345 -304 345s-304 -141 -304 -345s118 -345 304 -345zM426 907c11 -9 11 -23 -8 -43c-20 -21 -108 -107 -108 -107l-3 3
s63 105 78 129c16 24 29 27 41 18zM544 907c12 -9 12 -23 -8 -43c-19 -21 -107 -107 -107 -107l-3 3s63 105 78 129c16 24 29 27 40 18z" />
    <glyph glyph-name="Omacron" unicode="&#x14c;" horiz-adv-x="804" 
d="M402 707c224 0 372 -153 372 -357s-148 -356 -372 -356c-225 0 -372 152 -372 356s147 357 372 357zM402 5c186 0 304 141 304 345s-118 345 -304 345s-304 -141 -304 -345s118 -345 304 -345zM231 862h341v-12h-341v12z" />
    <glyph glyph-name="Oslashacute" unicode="&#x1fe;" horiz-adv-x="804" 
d="M668 608c68 -64 106 -154 106 -258c0 -204 -148 -356 -372 -356c-105 0 -194 34 -258 90l-69 -69l-8 8l69 69c-68 64 -106 154 -106 258c0 204 147 357 372 357c105 0 193 -35 257 -91l70 69l8 -8zM98 350c0 -92 24 -170 67 -229l467 467c-53 67 -132 107 -230 107
c-186 0 -304 -141 -304 -345zM402 5c186 0 304 141 304 345c0 91 -24 170 -67 229l-467 -467c53 -67 132 -107 230 -107zM473 890c9 -11 5 -25 -19 -40s-130 -76 -130 -76l-3 4s87 86 109 105c21 19 34 19 43 7z" />
    <glyph glyph-name="Otilde" unicode="&#xd5;" horiz-adv-x="804" 
d="M402 707c224 0 372 -153 372 -357s-148 -356 -372 -356c-225 0 -372 152 -372 356s147 357 372 357zM402 5c186 0 304 141 304 345s-118 345 -304 345s-304 -141 -304 -345s118 -345 304 -345zM550 907l8 -2c-13 -43 -56 -87 -97 -87s-106 37 -145 41
c-29 3 -45 -4 -62 -48l-9 3s16 45 42 63c25 18 61 32 139 4c78 -27 112 -17 124 26z" />
    <glyph glyph-name="Racute" unicode="&#x154;" horiz-adv-x="721" 
d="M724 80l7 -3c-19 -40 -58 -88 -118 -83c-78 6 -116 62 -147 181c-41 157 -106 157 -238 157h-63v-263c0 -50 9 -61 60 -61h55v-8h-260v8h20c51 0 60 11 60 61v562c0 50 -9 60 -60 60h-20v9h276c174 0 265 -62 265 -184c0 -104 -67 -164 -194 -180
c65 -10 130 -40 160 -123c32 -90 34 -195 99 -206c40 -7 79 31 98 73zM165 688v-344h114c170 0 213 80 213 172s-43 172 -213 172h-114zM367 890c9 -11 5 -25 -19 -40s-130 -76 -130 -76l-3 4s87 86 109 105c21 19 34 19 43 7z" />
    <glyph glyph-name="Rcaron" unicode="&#x158;" horiz-adv-x="721" 
d="M724 80l7 -3c-19 -40 -58 -88 -118 -83c-78 6 -116 62 -147 181c-41 157 -106 157 -238 157h-63v-263c0 -50 9 -61 60 -61h55v-8h-260v8h20c51 0 60 11 60 61v562c0 50 -9 60 -60 60h-20v9h276c174 0 265 -62 265 -184c0 -104 -67 -164 -194 -180
c65 -10 130 -40 160 -123c32 -90 34 -195 99 -206c40 -7 79 31 98 73zM165 688v-344h114c170 0 213 80 213 172s-43 172 -213 172h-114zM448 910l4 -6l-147 -122l-146 122l3 6l143 -78z" />
    <glyph glyph-name="Rcommaaccent" unicode="&#x156;" horiz-adv-x="721" 
d="M724 80l7 -3c-19 -40 -58 -88 -118 -83c-78 6 -116 62 -147 181c-41 157 -106 157 -238 157h-63v-263c0 -50 9 -61 60 -61h55v-8h-260v8h20c51 0 60 11 60 61v562c0 50 -9 60 -60 60h-20v9h276c174 0 265 -62 265 -184c0 -104 -67 -164 -194 -180
c65 -10 130 -40 160 -123c32 -90 34 -195 99 -206c40 -7 79 31 98 73zM165 688v-344h114c170 0 213 80 213 172s-43 172 -213 172h-114zM364 -64c26 0 43 -19 44 -43c4 -58 -28 -113 -72 -159l-6 6c34 31 70 99 38 106c-28 6 -49 19 -49 47c0 24 20 43 45 43z" />
    <glyph glyph-name="Sacute" unicode="&#x15a;" horiz-adv-x="606" 
d="M328 406c166 -68 261 -113 240 -241c-16 -99 -112 -171 -242 -171c-146 0 -228 79 -255 73c-13 -2 -12 -22 -12 -69v-14h-9v126v110h9v-37c0 -95 116 -170 252 -179c123 -7 200 47 208 142c10 119 -120 152 -236 202c-145 62 -198 121 -179 221c18 96 138 140 215 137
c122 -5 166 -68 187 -58c9 3 6 14 6 61v14h9v-126v-110h-9v37c0 95 -61 166 -193 172c-84 4 -157 -31 -163 -122c-4 -67 44 -115 172 -168zM392 890c9 -11 5 -25 -19 -40s-130 -76 -130 -76l-3 4s87 86 109 105c21 19 34 19 43 7z" />
    <glyph glyph-name="Scaron" unicode="&#x160;" horiz-adv-x="606" 
d="M328 406c166 -68 261 -113 240 -241c-16 -99 -112 -171 -242 -171c-146 0 -228 79 -255 73c-13 -2 -12 -22 -12 -69v-14h-9v126v110h9v-37c0 -95 116 -170 252 -179c123 -7 200 47 208 142c10 119 -120 152 -236 202c-145 62 -198 121 -179 221c18 96 138 140 215 137
c122 -5 166 -68 187 -58c9 3 6 14 6 61v14h9v-126v-110h-9v37c0 95 -61 166 -193 172c-84 4 -157 -31 -163 -122c-4 -67 44 -115 172 -168zM463 910l4 -6l-147 -122l-146 122l3 6l143 -78z" />
    <glyph glyph-name="Scircumflex" unicode="&#x15c;" horiz-adv-x="606" 
d="M328 406c166 -68 261 -113 240 -241c-16 -99 -112 -171 -242 -171c-146 0 -228 79 -255 73c-13 -2 -12 -22 -12 -69v-14h-9v126v110h9v-37c0 -95 116 -170 252 -179c123 -7 200 47 208 142c10 119 -120 152 -236 202c-145 62 -198 121 -179 221c18 96 138 140 215 137
c122 -5 166 -68 187 -58c9 3 6 14 6 61v14h9v-126v-110h-9v37c0 95 -61 166 -193 172c-84 4 -157 -31 -163 -122c-4 -67 44 -115 172 -168zM321 913l146 -122l-3 -6l-143 78l-143 -78l-4 6z" />
    <glyph glyph-name="Scommaaccent" unicode="&#x218;" horiz-adv-x="606" 
d="M328 406c166 -68 261 -113 240 -241c-16 -99 -112 -171 -242 -171c-146 0 -228 79 -255 73c-13 -2 -12 -22 -12 -69v-14h-9v126v110h9v-37c0 -95 116 -170 252 -179c123 -7 200 47 208 142c10 119 -120 152 -236 202c-145 62 -198 121 -179 221c18 96 138 140 215 137
c122 -5 166 -68 187 -58c9 3 6 14 6 61v14h9v-126v-110h-9v37c0 95 -61 166 -193 172c-84 4 -157 -31 -163 -122c-4 -67 44 -115 172 -168zM334 -64c26 0 43 -19 44 -43c4 -58 -28 -113 -72 -159l-6 6c34 31 70 99 38 106c-28 6 -49 19 -49 47c0 24 20 43 45 43z" />
    <glyph glyph-name="Tcaron" unicode="&#x164;" horiz-adv-x="670" 
d="M50 700h570v-198h-8v107c0 51 -11 79 -61 79h-184v-619c0 -50 9 -61 60 -61h20v-8h-224v8h19c51 0 60 11 60 61v619h-183c-51 0 -61 -28 -61 -79v-107h-8v198zM477 910l4 -6l-147 -122l-146 122l3 6l143 -78z" />
    <glyph glyph-name="Tcommaaccent" unicode="&#x162;" horiz-adv-x="670" 
d="M50 700h570v-198h-8v107c0 51 -11 79 -61 79h-184v-619c0 -50 9 -61 60 -61h20v-8h-224v8h19c51 0 60 11 60 61v619h-183c-51 0 -61 -28 -61 -79v-107h-8v198zM333 -64c26 0 43 -19 44 -43c4 -58 -28 -113 -72 -159l-6 6c34 31 70 99 38 106c-28 6 -49 19 -49 47
c0 24 20 43 45 43z" />
    <glyph glyph-name="Uacute" unicode="&#xda;" horiz-adv-x="757" 
d="M512 700h225v-9h-20c-51 0 -87 -10 -87 -60v-354c0 -130 -59 -283 -242 -283c-156 0 -288 86 -288 292v345c0 50 -9 60 -60 60h-20v9h225v-9h-20c-51 0 -60 -10 -60 -60v-345c0 -198 110 -267 245 -264c124 3 209 102 209 255v354c0 50 -36 60 -87 60h-20v9zM460 890
c9 -11 5 -25 -19 -40s-130 -76 -130 -76l-3 4s87 86 109 105c21 19 34 19 43 7z" />
    <glyph glyph-name="Ubreve" unicode="&#x16c;" horiz-adv-x="757" 
d="M512 700h225v-9h-20c-51 0 -87 -10 -87 -60v-354c0 -130 -59 -283 -242 -283c-156 0 -288 86 -288 292v345c0 50 -9 60 -60 60h-20v9h225v-9h-20c-51 0 -60 -10 -60 -60v-345c0 -198 110 -267 245 -264c124 3 209 102 209 255v354c0 50 -36 60 -87 60h-20v9zM493 908h7
c-2 -51 -44 -108 -112 -108s-110 57 -112 108h7c12 -41 45 -65 105 -65s92 24 105 65z" />
    <glyph glyph-name="Ucircumflex" unicode="&#xdb;" horiz-adv-x="757" 
d="M512 700h225v-9h-20c-51 0 -87 -10 -87 -60v-354c0 -130 -59 -283 -242 -283c-156 0 -288 86 -288 292v345c0 50 -9 60 -60 60h-20v9h225v-9h-20c-51 0 -60 -10 -60 -60v-345c0 -198 110 -267 245 -264c124 3 209 102 209 255v354c0 50 -36 60 -87 60h-20v9zM389 913
l146 -122l-3 -6l-143 78l-143 -78l-4 6z" />
    <glyph glyph-name="Udieresis" unicode="&#xdc;" horiz-adv-x="757" 
d="M512 700h225v-9h-20c-51 0 -87 -10 -87 -60v-354c0 -130 -59 -283 -242 -283c-156 0 -288 86 -288 292v345c0 50 -9 60 -60 60h-20v9h225v-9h-20c-51 0 -60 -10 -60 -60v-345c0 -198 110 -267 245 -264c124 3 209 102 209 255v354c0 50 -36 60 -87 60h-20v9zM311 900
c28 0 50 -22 50 -49s-22 -49 -50 -49s-51 22 -51 49s23 49 51 49zM465 900c28 0 51 -22 51 -49s-23 -49 -51 -49s-50 22 -50 49s22 49 50 49z" />
    <glyph glyph-name="Ugrave" unicode="&#xd9;" horiz-adv-x="757" 
d="M512 700h225v-9h-20c-51 0 -87 -10 -87 -60v-354c0 -130 -59 -283 -242 -283c-156 0 -288 86 -288 292v345c0 50 -9 60 -60 60h-20v9h225v-9h-20c-51 0 -60 -10 -60 -60v-345c0 -198 110 -267 245 -264c124 3 209 102 209 255v354c0 50 -36 60 -87 60h-20v9zM350 883
c21 -19 109 -105 109 -105l-3 -4s-106 61 -130 76s-28 29 -19 40c9 12 22 12 43 -7z" />
    <glyph glyph-name="Uhungarumlaut" unicode="&#x170;" horiz-adv-x="757" 
d="M512 700h225v-9h-20c-51 0 -87 -10 -87 -60v-354c0 -130 -59 -283 -242 -283c-156 0 -288 86 -288 292v345c0 50 -9 60 -60 60h-20v9h225v-9h-20c-51 0 -60 -10 -60 -60v-345c0 -198 110 -267 245 -264c124 3 209 102 209 255v354c0 50 -36 60 -87 60h-20v9zM413 907
c11 -9 11 -23 -8 -43c-20 -21 -108 -107 -108 -107l-3 3s63 105 78 129c16 24 29 27 41 18zM531 907c12 -9 12 -23 -8 -43c-19 -21 -107 -107 -107 -107l-3 3s63 105 78 129c16 24 29 27 40 18z" />
    <glyph glyph-name="Umacron" unicode="&#x16a;" horiz-adv-x="757" 
d="M512 700h225v-9h-20c-51 0 -87 -10 -87 -60v-354c0 -130 -59 -283 -242 -283c-156 0 -288 86 -288 292v345c0 50 -9 60 -60 60h-20v9h225v-9h-20c-51 0 -60 -10 -60 -60v-345c0 -198 110 -267 245 -264c124 3 209 102 209 255v354c0 50 -36 60 -87 60h-20v9zM218 862h341
v-12h-341v12z" />
    <glyph glyph-name="Uring" unicode="&#x16e;" horiz-adv-x="757" 
d="M512 700h225v-9h-20c-51 0 -87 -10 -87 -60v-354c0 -130 -59 -283 -242 -283c-156 0 -288 86 -288 292v345c0 50 -9 60 -60 60h-20v9h225v-9h-20c-51 0 -60 -10 -60 -60v-345c0 -198 110 -267 245 -264c124 3 209 102 209 255v354c0 50 -36 60 -87 60h-20v9zM379 952
c48 0 94 -35 94 -88c0 -52 -46 -87 -94 -87c-49 0 -95 35 -95 87c0 53 46 88 95 88zM379 783c34 0 58 31 58 81s-24 82 -58 82c-35 0 -59 -32 -59 -82s24 -81 59 -81z" />
    <glyph glyph-name="Utilde" unicode="&#x168;" horiz-adv-x="757" 
d="M512 700h225v-9h-20c-51 0 -87 -10 -87 -60v-354c0 -130 -59 -283 -242 -283c-156 0 -288 86 -288 292v345c0 50 -9 60 -60 60h-20v9h225v-9h-20c-51 0 -60 -10 -60 -60v-345c0 -198 110 -267 245 -264c124 3 209 102 209 255v354c0 50 -36 60 -87 60h-20v9zM537 907
l8 -2c-13 -43 -56 -87 -97 -87s-106 37 -145 41c-29 3 -45 -4 -62 -48l-9 3s16 45 42 63c25 18 61 32 139 4c78 -27 112 -17 124 26z" />
    <glyph glyph-name="Wacute" unicode="&#x1e82;" horiz-adv-x="1073" 
d="M856 700h207v-9h-20c-51 0 -77 -13 -96 -60l-244 -631h-12l-158 374l-145 -374h-12l-267 631c-24 45 -37 60 -87 60h-12v9h216v-9h-20c-51 0 -46 -13 -27 -60l231 -544l117 301l-103 243c-24 45 -37 60 -88 60h-11v9h216v-9h-20c-51 0 -46 -13 -27 -60l66 -157l65 166
c19 51 3 51 -48 51h-1v9h172v-9h-20c-51 0 -77 -13 -96 -60l-66 -171l159 -373l211 544c20 50 -9 60 -60 60h-20v9zM628 890c9 -11 5 -25 -19 -40s-130 -76 -130 -76l-3 4s87 86 109 105c21 19 34 19 43 7z" />
    <glyph glyph-name="Wcircumflex" unicode="&#x174;" horiz-adv-x="1073" 
d="M856 700h207v-9h-20c-51 0 -77 -13 -96 -60l-244 -631h-12l-158 374l-145 -374h-12l-267 631c-24 45 -37 60 -87 60h-12v9h216v-9h-20c-51 0 -46 -13 -27 -60l231 -544l117 301l-103 243c-24 45 -37 60 -88 60h-11v9h216v-9h-20c-51 0 -46 -13 -27 -60l66 -157l65 166
c19 51 3 51 -48 51h-1v9h172v-9h-20c-51 0 -77 -13 -96 -60l-66 -171l159 -373l211 544c20 50 -9 60 -60 60h-20v9zM557 913l146 -122l-3 -6l-143 78l-143 -78l-4 6z" />
    <glyph glyph-name="Wdieresis" unicode="&#x1e84;" horiz-adv-x="1073" 
d="M856 700h207v-9h-20c-51 0 -77 -13 -96 -60l-244 -631h-12l-158 374l-145 -374h-12l-267 631c-24 45 -37 60 -87 60h-12v9h216v-9h-20c-51 0 -46 -13 -27 -60l231 -544l117 301l-103 243c-24 45 -37 60 -88 60h-11v9h216v-9h-20c-51 0 -46 -13 -27 -60l66 -157l65 166
c19 51 3 51 -48 51h-1v9h172v-9h-20c-51 0 -77 -13 -96 -60l-66 -171l159 -373l211 544c20 50 -9 60 -60 60h-20v9zM479 900c28 0 50 -22 50 -49s-22 -49 -50 -49s-51 22 -51 49s23 49 51 49zM633 900c28 0 51 -22 51 -49s-23 -49 -51 -49s-50 22 -50 49s22 49 50 49z" />
    <glyph glyph-name="Wgrave" unicode="&#x1e80;" horiz-adv-x="1073" 
d="M856 700h207v-9h-20c-51 0 -77 -13 -96 -60l-244 -631h-12l-158 374l-145 -374h-12l-267 631c-24 45 -37 60 -87 60h-12v9h216v-9h-20c-51 0 -46 -13 -27 -60l231 -544l117 301l-103 243c-24 45 -37 60 -88 60h-11v9h216v-9h-20c-51 0 -46 -13 -27 -60l66 -157l65 166
c19 51 3 51 -48 51h-1v9h172v-9h-20c-51 0 -77 -13 -96 -60l-66 -171l159 -373l211 544c20 50 -9 60 -60 60h-20v9zM528 883c21 -19 109 -105 109 -105l-3 -4s-106 61 -130 76s-28 29 -19 40c9 12 22 12 43 -7z" />
    <glyph glyph-name="Yacute" unicode="&#xdd;" horiz-adv-x="677" 
d="M478 700h189v-9h-20c-50 0 -59 -15 -86 -59l-183 -340v-223c0 -50 10 -61 60 -61h20v-8h-224v8h20c51 0 60 11 60 61v206l-212 356c-28 42 -36 60 -81 60h-11v9h215v-9h-20c-50 0 -58 -14 -33 -60l198 -333l180 336c23 44 -3 57 -53 57h-19v9zM430 890
c9 -11 5 -25 -19 -40s-130 -76 -130 -76l-3 4s87 86 109 105c21 19 34 19 43 7z" />
    <glyph glyph-name="Ycircumflex" unicode="&#x176;" horiz-adv-x="677" 
d="M478 700h189v-9h-20c-50 0 -59 -15 -86 -59l-183 -340v-223c0 -50 10 -61 60 -61h20v-8h-224v8h20c51 0 60 11 60 61v206l-212 356c-28 42 -36 60 -81 60h-11v9h215v-9h-20c-50 0 -58 -14 -33 -60l198 -333l180 336c23 44 -3 57 -53 57h-19v9zM359 913l146 -122l-3 -6
l-143 78l-143 -78l-4 6z" />
    <glyph glyph-name="Ydieresis" unicode="&#x178;" horiz-adv-x="677" 
d="M478 700h189v-9h-20c-50 0 -59 -15 -86 -59l-183 -340v-223c0 -50 10 -61 60 -61h20v-8h-224v8h20c51 0 60 11 60 61v206l-212 356c-28 42 -36 60 -81 60h-11v9h215v-9h-20c-50 0 -58 -14 -33 -60l198 -333l180 336c23 44 -3 57 -53 57h-19v9zM281 900
c28 0 50 -22 50 -49s-22 -49 -50 -49s-51 22 -51 49s23 49 51 49zM435 900c28 0 51 -22 51 -49s-23 -49 -51 -49s-50 22 -50 49s22 49 50 49z" />
    <glyph glyph-name="Ygrave" unicode="&#x1ef2;" horiz-adv-x="677" 
d="M478 700h189v-9h-20c-50 0 -59 -15 -86 -59l-183 -340v-223c0 -50 10 -61 60 -61h20v-8h-224v8h20c51 0 60 11 60 61v206l-212 356c-28 42 -36 60 -81 60h-11v9h215v-9h-20c-50 0 -58 -14 -33 -60l198 -333l180 336c23 44 -3 57 -53 57h-19v9zM310 883
c21 -19 109 -105 109 -105l-3 -4s-106 61 -130 76s-28 29 -19 40c9 12 22 12 43 -7z" />
    <glyph glyph-name="Zacute" unicode="&#x179;" horiz-adv-x="632" 
d="M574 218h8v-218h-532v11l451 677h-365c-50 0 -61 -35 -61 -86v-120h-8v218h507v-12l-452 -677h391c50 0 61 36 61 87v120zM397 890c9 -11 5 -25 -19 -40s-130 -76 -130 -76l-3 4s87 86 109 105c21 19 34 19 43 7z" />
    <glyph glyph-name="Zcaron" unicode="&#x17d;" horiz-adv-x="632" 
d="M574 218h8v-218h-532v11l451 677h-365c-50 0 -61 -35 -61 -86v-120h-8v218h507v-12l-452 -677h391c50 0 61 36 61 87v120zM468 910l4 -6l-147 -122l-146 122l3 6l143 -78z" />
    <glyph glyph-name="Zdotaccent" unicode="&#x17b;" horiz-adv-x="632" 
d="M574 218h8v-218h-532v11l451 677h-365c-50 0 -61 -35 -61 -86v-120h-8v218h507v-12l-452 -677h391c50 0 61 36 61 87v120zM325 900c28 0 51 -22 51 -49s-23 -49 -51 -49s-50 22 -50 49s22 49 50 49z" />
    <glyph glyph-name="aacute" unicode="&#xe1;" horiz-adv-x="544" 
d="M539 56l5 -4c-16 -24 -50 -58 -95 -58c-49 0 -81 28 -81 87v76c-10 -54 -59 -157 -169 -163c-79 -4 -170 32 -173 119c-4 105 90 132 203 151c95 16 127 55 139 77c0 118 -53 142 -118 142c-53 0 -77 -43 -109 -74c-25 -24 -45 -24 -57 -9c-10 12 -4 31 14 43
c42 26 101 48 154 48c114 0 180 -56 180 -184v-232c0 -51 11 -67 31 -69c24 -3 57 20 76 50zM368 205v124c-21 -24 -44 -54 -151 -75c-61 -13 -138 -44 -133 -137c5 -79 70 -114 142 -107c82 8 142 106 142 195zM346 690c9 -11 5 -25 -19 -40s-130 -76 -130 -76l-3 4
s87 86 109 105c21 19 34 19 43 7z" />
    <glyph glyph-name="abreve" unicode="&#x103;" horiz-adv-x="544" 
d="M539 56l5 -4c-16 -24 -50 -58 -95 -58c-49 0 -81 28 -81 87v76c-10 -54 -59 -157 -169 -163c-79 -4 -170 32 -173 119c-4 105 90 132 203 151c95 16 127 55 139 77c0 118 -53 142 -118 142c-53 0 -77 -43 -109 -74c-25 -24 -45 -24 -57 -9c-10 12 -4 31 14 43
c42 26 101 48 154 48c114 0 180 -56 180 -184v-232c0 -51 11 -67 31 -69c24 -3 57 20 76 50zM368 205v124c-21 -24 -44 -54 -151 -75c-61 -13 -138 -44 -133 -137c5 -79 70 -114 142 -107c82 8 142 106 142 195zM379 708h7c-2 -51 -44 -108 -112 -108s-110 57 -112 108h7
c12 -41 45 -65 105 -65s92 24 105 65z" />
    <glyph glyph-name="acircumflex" unicode="&#xe2;" horiz-adv-x="544" 
d="M539 56l5 -4c-16 -24 -50 -58 -95 -58c-49 0 -81 28 -81 87v76c-10 -54 -59 -157 -169 -163c-79 -4 -170 32 -173 119c-4 105 90 132 203 151c95 16 127 55 139 77c0 118 -53 142 -118 142c-53 0 -77 -43 -109 -74c-25 -24 -45 -24 -57 -9c-10 12 -4 31 14 43
c42 26 101 48 154 48c114 0 180 -56 180 -184v-232c0 -51 11 -67 31 -69c24 -3 57 20 76 50zM368 205v124c-21 -24 -44 -54 -151 -75c-61 -13 -138 -44 -133 -137c5 -79 70 -114 142 -107c82 8 142 106 142 195zM275 713l146 -122l-3 -6l-143 78l-143 -78l-4 6z" />
    <glyph glyph-name="adieresis" unicode="&#xe4;" horiz-adv-x="544" 
d="M539 56l5 -4c-16 -24 -50 -58 -95 -58c-49 0 -81 28 -81 87v76c-10 -54 -59 -157 -169 -163c-79 -4 -170 32 -173 119c-4 105 90 132 203 151c95 16 127 55 139 77c0 118 -53 142 -118 142c-53 0 -77 -43 -109 -74c-25 -24 -45 -24 -57 -9c-10 12 -4 31 14 43
c42 26 101 48 154 48c114 0 180 -56 180 -184v-232c0 -51 11 -67 31 -69c24 -3 57 20 76 50zM368 205v124c-21 -24 -44 -54 -151 -75c-61 -13 -138 -44 -133 -137c5 -79 70 -114 142 -107c82 8 142 106 142 195zM197 700c28 0 50 -22 50 -49s-22 -49 -50 -49s-51 22 -51 49
s23 49 51 49zM351 700c28 0 51 -22 51 -49s-23 -49 -51 -49s-50 22 -50 49s22 49 50 49z" />
    <glyph glyph-name="agrave" unicode="&#xe0;" horiz-adv-x="544" 
d="M539 56l5 -4c-16 -24 -50 -58 -95 -58c-49 0 -81 28 -81 87v76c-10 -54 -59 -157 -169 -163c-79 -4 -170 32 -173 119c-4 105 90 132 203 151c95 16 127 55 139 77c0 118 -53 142 -118 142c-53 0 -77 -43 -109 -74c-25 -24 -45 -24 -57 -9c-10 12 -4 31 14 43
c42 26 101 48 154 48c114 0 180 -56 180 -184v-232c0 -51 11 -67 31 -69c24 -3 57 20 76 50zM368 205v124c-21 -24 -44 -54 -151 -75c-61 -13 -138 -44 -133 -137c5 -79 70 -114 142 -107c82 8 142 106 142 195zM246 683c21 -19 109 -105 109 -105l-3 -4s-106 61 -130 76
s-28 29 -19 40c9 12 22 12 43 -7z" />
    <glyph glyph-name="aring" unicode="&#xe5;" horiz-adv-x="544" 
d="M539 56l5 -4c-16 -24 -50 -58 -95 -58c-49 0 -81 28 -81 87v76c-10 -54 -59 -157 -169 -163c-79 -4 -170 32 -173 119c-4 105 90 132 203 151c95 16 127 55 139 77c0 118 -53 142 -118 142c-53 0 -77 -43 -109 -74c-25 -24 -45 -24 -57 -9c-10 12 -4 31 14 43
c42 26 101 48 154 48c114 0 180 -56 180 -184v-232c0 -51 11 -67 31 -69c24 -3 57 20 76 50zM368 205v124c-21 -24 -44 -54 -151 -75c-61 -13 -138 -44 -133 -137c5 -79 70 -114 142 -107c82 8 142 106 142 195zM265 752c48 0 94 -35 94 -88c0 -52 -46 -87 -94 -87
c-49 0 -95 35 -95 87c0 53 46 88 95 88zM265 583c34 0 58 31 58 81s-24 82 -58 82c-35 0 -59 -32 -59 -82s24 -81 59 -81z" />
    <glyph glyph-name="amacron" unicode="&#x101;" horiz-adv-x="544" 
d="M539 56l5 -4c-16 -24 -50 -58 -95 -58c-49 0 -81 28 -81 87v76c-10 -54 -59 -157 -169 -163c-79 -4 -170 32 -173 119c-4 105 90 132 203 151c95 16 127 55 139 77c0 118 -53 142 -118 142c-53 0 -77 -43 -109 -74c-25 -24 -45 -24 -57 -9c-10 12 -4 31 14 43
c42 26 101 48 154 48c114 0 180 -56 180 -184v-232c0 -51 11 -67 31 -69c24 -3 57 20 76 50zM368 205v124c-21 -24 -44 -54 -151 -75c-61 -13 -138 -44 -133 -137c5 -79 70 -114 142 -107c82 8 142 106 142 195zM94 662h341v-12h-341v12z" />
    <glyph glyph-name="atilde" unicode="&#xe3;" horiz-adv-x="544" 
d="M539 56l5 -4c-16 -24 -50 -58 -95 -58c-49 0 -81 28 -81 87v76c-10 -54 -59 -157 -169 -163c-79 -4 -170 32 -173 119c-4 105 90 132 203 151c95 16 127 55 139 77c0 118 -53 142 -118 142c-53 0 -77 -43 -109 -74c-25 -24 -45 -24 -57 -9c-10 12 -4 31 14 43
c42 26 101 48 154 48c114 0 180 -56 180 -184v-232c0 -51 11 -67 31 -69c24 -3 57 20 76 50zM368 205v124c-21 -24 -44 -54 -151 -75c-61 -13 -138 -44 -133 -137c5 -79 70 -114 142 -107c82 8 142 106 142 195zM413 707l8 -2c-13 -43 -56 -87 -97 -87s-106 37 -145 41
c-29 3 -45 -4 -62 -48l-9 3s16 45 42 63c25 18 61 32 139 4c78 -27 112 -17 124 26z" />
    <glyph glyph-name="aeacute" unicode="&#x1fd;" horiz-adv-x="870" 
d="M905 201l5 -4c-31 -55 -120 -203 -288 -203c-139 0 -239 78 -252 202c-7 -95 -65 -196 -176 -202c-78 -4 -170 32 -173 119c-3 105 90 132 204 151c94 16 127 55 138 77c0 118 -52 142 -118 142c-52 0 -76 -43 -108 -74c-25 -24 -46 -24 -58 -9c-10 12 -4 31 15 43
c42 26 100 48 153 48c90 0 150 -35 171 -111c48 66 125 111 209 111c109 0 194 -72 194 -181h-392c-3 -23 -4 -47 -2 -73c14 -139 107 -205 214 -212c158 -10 237 127 264 176zM610 480c-88 1 -161 -63 -179 -162h327c4 82 -39 161 -148 162zM363 205v124
c-20 -24 -44 -54 -150 -75c-62 -13 -138 -44 -133 -137c4 -79 69 -114 141 -107c82 8 142 106 142 195zM556 690c9 -11 5 -25 -19 -40s-130 -76 -130 -76l-3 4s87 86 109 105c21 19 34 19 43 7z" />
    <glyph glyph-name="cacute" unicode="&#x107;" 
d="M568 201l5 -4c-31 -55 -120 -203 -288 -203c-147 0 -251 87 -254 224c-3 149 117 273 259 273c71 -2 117 -21 157 -48c22 -16 26 -36 16 -49c-14 -17 -43 -10 -64 20c-21 31 -53 63 -126 66c-110 1 -196 -98 -182 -243c13 -139 106 -205 213 -212
c158 -10 238 127 264 176zM363 690c9 -11 5 -25 -19 -40s-130 -76 -130 -76l-3 4s87 86 109 105c21 19 34 19 43 7z" />
    <glyph glyph-name="ccaron" unicode="&#x10d;" 
d="M568 201l5 -4c-31 -55 -120 -203 -288 -203c-147 0 -251 87 -254 224c-3 149 117 273 259 273c71 -2 117 -21 157 -48c22 -16 26 -36 16 -49c-14 -17 -43 -10 -64 20c-21 31 -53 63 -126 66c-110 1 -196 -98 -182 -243c13 -139 106 -205 213 -212
c158 -10 238 127 264 176zM424 710l4 -6l-147 -122l-146 122l3 6l143 -78z" />
    <glyph glyph-name="ccircumflex" unicode="&#x109;" 
d="M568 201l5 -4c-31 -55 -120 -203 -288 -203c-147 0 -251 87 -254 224c-3 149 117 273 259 273c71 -2 117 -21 157 -48c22 -16 26 -36 16 -49c-14 -17 -43 -10 -64 20c-21 31 -53 63 -126 66c-110 1 -196 -98 -182 -243c13 -139 106 -205 213 -212
c158 -10 238 127 264 176zM282 713l146 -122l-3 -6l-143 78l-143 -78l-4 6z" />
    <glyph glyph-name="cdotaccent" unicode="&#x10b;" 
d="M568 201l5 -4c-31 -55 -120 -203 -288 -203c-147 0 -251 87 -254 224c-3 149 117 273 259 273c71 -2 117 -21 157 -48c22 -16 26 -36 16 -49c-14 -17 -43 -10 -64 20c-21 31 -53 63 -126 66c-110 1 -196 -98 -182 -243c13 -139 106 -205 213 -212
c158 -10 238 127 264 176zM291 700c28 0 51 -22 51 -49s-23 -49 -51 -49s-50 22 -50 49s22 49 50 49z" />
    <glyph glyph-name="dcaron" unicode="&#x10f;" horiz-adv-x="733" 
d="M581 8h20v-8h-145v111c-21 -65 -95 -115 -168 -117c-154 -4 -258 103 -258 248s104 253 258 249c73 -2 147 -53 168 -118v258c0 50 -9 60 -59 60h-20v9h144v-631c0 -50 9 -61 60 -61zM288 3c95 3 168 77 168 151v176c0 74 -73 148 -168 151c-114 2 -193 -96 -193 -239
s79 -242 193 -239zM671 706c30 0 49 -22 51 -49c5 -66 -32 -129 -83 -181l-6 7c38 35 80 113 44 121c-32 6 -56 21 -56 53c0 27 22 49 50 49z" />
    <glyph glyph-name="eacute" unicode="&#xe9;" 
d="M568 201l5 -4c-31 -55 -120 -203 -288 -203c-148 0 -251 87 -254 224c-3 149 117 273 259 273c109 0 194 -72 194 -181h-392c-3 -23 -4 -47 -2 -73c13 -139 107 -205 213 -212c159 -10 238 127 265 176zM273 480c-89 1 -161 -62 -179 -162h327c4 82 -39 161 -148 162z
M353 690c9 -11 5 -25 -19 -40s-130 -76 -130 -76l-3 4s87 86 109 105c21 19 34 19 43 7z" />
    <glyph glyph-name="ebreve" unicode="&#x115;" 
d="M568 201l5 -4c-31 -55 -120 -203 -288 -203c-148 0 -251 87 -254 224c-3 149 117 273 259 273c109 0 194 -72 194 -181h-392c-3 -23 -4 -47 -2 -73c13 -139 107 -205 213 -212c159 -10 238 127 265 176zM273 480c-89 1 -161 -62 -179 -162h327c4 82 -39 161 -148 162z
M386 708h7c-2 -51 -44 -108 -112 -108s-110 57 -112 108h7c12 -41 45 -65 105 -65s92 24 105 65z" />
    <glyph glyph-name="ecaron" unicode="&#x11b;" 
d="M568 201l5 -4c-31 -55 -120 -203 -288 -203c-148 0 -251 87 -254 224c-3 149 117 273 259 273c109 0 194 -72 194 -181h-392c-3 -23 -4 -47 -2 -73c13 -139 107 -205 213 -212c159 -10 238 127 265 176zM273 480c-89 1 -161 -62 -179 -162h327c4 82 -39 161 -148 162z
M424 710l4 -6l-147 -122l-146 122l3 6l143 -78z" />
    <glyph glyph-name="ecircumflex" unicode="&#xea;" 
d="M568 201l5 -4c-31 -55 -120 -203 -288 -203c-148 0 -251 87 -254 224c-3 149 117 273 259 273c109 0 194 -72 194 -181h-392c-3 -23 -4 -47 -2 -73c13 -139 107 -205 213 -212c159 -10 238 127 265 176zM273 480c-89 1 -161 -62 -179 -162h327c4 82 -39 161 -148 162z
M282 713l146 -122l-3 -6l-143 78l-143 -78l-4 6z" />
    <glyph glyph-name="edieresis" unicode="&#xeb;" 
d="M568 201l5 -4c-31 -55 -120 -203 -288 -203c-148 0 -251 87 -254 224c-3 149 117 273 259 273c109 0 194 -72 194 -181h-392c-3 -23 -4 -47 -2 -73c13 -139 107 -205 213 -212c159 -10 238 127 265 176zM273 480c-89 1 -161 -62 -179 -162h327c4 82 -39 161 -148 162z
M204 700c28 0 50 -22 50 -49s-22 -49 -50 -49s-51 22 -51 49s23 49 51 49zM358 700c28 0 51 -22 51 -49s-23 -49 -51 -49s-50 22 -50 49s22 49 50 49z" />
    <glyph glyph-name="edotaccent" unicode="&#x117;" 
d="M568 201l5 -4c-31 -55 -120 -203 -288 -203c-148 0 -251 87 -254 224c-3 149 117 273 259 273c109 0 194 -72 194 -181h-392c-3 -23 -4 -47 -2 -73c13 -139 107 -205 213 -212c159 -10 238 127 265 176zM273 480c-89 1 -161 -62 -179 -162h327c4 82 -39 161 -148 162z
M281 700c28 0 51 -22 51 -49s-23 -49 -51 -49s-50 22 -50 49s22 49 50 49z" />
    <glyph glyph-name="egrave" unicode="&#xe8;" 
d="M568 201l5 -4c-31 -55 -120 -203 -288 -203c-148 0 -251 87 -254 224c-3 149 117 273 259 273c109 0 194 -72 194 -181h-392c-3 -23 -4 -47 -2 -73c13 -139 107 -205 213 -212c159 -10 238 127 265 176zM273 480c-89 1 -161 -62 -179 -162h327c4 82 -39 161 -148 162z
M253 683c21 -19 109 -105 109 -105l-3 -4s-106 61 -130 76s-28 29 -19 40c9 12 22 12 43 -7z" />
    <glyph glyph-name="emacron" unicode="&#x113;" 
d="M568 201l5 -4c-31 -55 -120 -203 -288 -203c-148 0 -251 87 -254 224c-3 149 117 273 259 273c109 0 194 -72 194 -181h-392c-3 -23 -4 -47 -2 -73c13 -139 107 -205 213 -212c159 -10 238 127 265 176zM273 480c-89 1 -161 -62 -179 -162h327c4 82 -39 161 -148 162z
M111 662h341v-12h-341v12z" />
    <glyph glyph-name="gbreve" unicode="&#x11f;" horiz-adv-x="593" 
d="M343 -28c182 -12 267 -30 246 -142c-23 -117 -178 -242 -303 -264c-112 -20 -287 24 -275 145c7 77 72 130 140 171c22 14 45 25 65 33c-78 7 -156 24 -161 76c-7 70 108 104 173 108c-98 20 -162 94 -162 193c0 116 88 199 213 199c30 0 58 -6 83 -14c23 7 86 25 159 37
c32 6 47 -3 47 -21c0 -17 -14 -25 -55 -22c-78 4 -121 5 -142 2c75 -30 122 -96 122 -181c0 -116 -88 -198 -214 -198c-6 0 -12 0 -17 1c0 0 -70 -4 -102 -17c-31 -13 -55 -31 -53 -52c5 -34 70 -43 236 -54zM133 292c0 -114 52 -189 146 -189c95 0 147 75 147 189
s-52 189 -147 189c-94 0 -146 -75 -146 -189zM301 -388c168 16 271 130 261 220c-11 89 -148 71 -231 77c-26 1 -63 2 -100 5c-36 -13 -91 -40 -146 -92c-59 -55 -52 -122 4 -162c50 -35 132 -55 212 -48zM386 708h7c-2 -51 -44 -108 -112 -108s-110 57 -112 108h7
c12 -41 45 -65 105 -65s92 24 105 65z" />
    <glyph glyph-name="gcircumflex" unicode="&#x11d;" horiz-adv-x="593" 
d="M343 -28c182 -12 267 -30 246 -142c-23 -117 -178 -242 -303 -264c-112 -20 -287 24 -275 145c7 77 72 130 140 171c22 14 45 25 65 33c-78 7 -156 24 -161 76c-7 70 108 104 173 108c-98 20 -162 94 -162 193c0 116 88 199 213 199c30 0 58 -6 83 -14c23 7 86 25 159 37
c32 6 47 -3 47 -21c0 -17 -14 -25 -55 -22c-78 4 -121 5 -142 2c75 -30 122 -96 122 -181c0 -116 -88 -198 -214 -198c-6 0 -12 0 -17 1c0 0 -70 -4 -102 -17c-31 -13 -55 -31 -53 -52c5 -34 70 -43 236 -54zM133 292c0 -114 52 -189 146 -189c95 0 147 75 147 189
s-52 189 -147 189c-94 0 -146 -75 -146 -189zM301 -388c168 16 271 130 261 220c-11 89 -148 71 -231 77c-26 1 -63 2 -100 5c-36 -13 -91 -40 -146 -92c-59 -55 -52 -122 4 -162c50 -35 132 -55 212 -48zM282 713l146 -122l-3 -6l-143 78l-143 -78l-4 6z" />
    <glyph glyph-name="gcommaaccent" unicode="&#x123;" horiz-adv-x="593" 
d="M343 -28c182 -12 267 -30 246 -142c-23 -117 -178 -242 -303 -264c-112 -20 -287 24 -275 145c7 77 72 130 140 171c22 14 45 25 65 33c-78 7 -156 24 -161 76c-7 70 108 104 173 108c-98 20 -162 94 -162 193c0 116 88 199 213 199c30 0 58 -6 83 -14c23 7 86 25 159 37
c32 6 47 -3 47 -21c0 -17 -14 -25 -55 -22c-78 4 -121 5 -142 2c75 -30 122 -96 122 -181c0 -116 -88 -198 -214 -198c-6 0 -12 0 -17 1c0 0 -70 -4 -102 -17c-31 -13 -55 -31 -53 -52c5 -34 70 -43 236 -54zM133 292c0 -114 52 -189 146 -189c95 0 147 75 147 189
s-52 189 -147 189c-94 0 -146 -75 -146 -189zM301 -388c168 16 271 130 261 220c-11 89 -148 71 -231 77c-26 1 -63 2 -100 5c-36 -13 -91 -40 -146 -92c-59 -55 -52 -122 4 -162c50 -35 132 -55 212 -48zM273 709c32 -7 56 -21 56 -53c0 -28 -23 -50 -51 -50
c-30 0 -49 22 -51 50c-4 65 32 129 83 180l7 -6c-39 -36 -81 -113 -44 -121z" />
    <glyph glyph-name="gdotaccent" unicode="&#x121;" horiz-adv-x="593" 
d="M343 -28c182 -12 267 -30 246 -142c-23 -117 -178 -242 -303 -264c-112 -20 -287 24 -275 145c7 77 72 130 140 171c22 14 45 25 65 33c-78 7 -156 24 -161 76c-7 70 108 104 173 108c-98 20 -162 94 -162 193c0 116 88 199 213 199c30 0 58 -6 83 -14c23 7 86 25 159 37
c32 6 47 -3 47 -21c0 -17 -14 -25 -55 -22c-78 4 -121 5 -142 2c75 -30 122 -96 122 -181c0 -116 -88 -198 -214 -198c-6 0 -12 0 -17 1c0 0 -70 -4 -102 -17c-31 -13 -55 -31 -53 -52c5 -34 70 -43 236 -54zM133 292c0 -114 52 -189 146 -189c95 0 147 75 147 189
s-52 189 -147 189c-94 0 -146 -75 -146 -189zM301 -388c168 16 271 130 261 220c-11 89 -148 71 -231 77c-26 1 -63 2 -100 5c-36 -13 -91 -40 -146 -92c-59 -55 -52 -122 4 -162c50 -35 132 -55 212 -48zM281 700c28 0 51 -22 51 -49s-23 -49 -51 -49s-50 22 -50 49
s22 49 50 49z" />
    <glyph glyph-name="hcircumflex" unicode="&#x125;" horiz-adv-x="624" 
d="M594 8h20v-8h-225v8h20c51 0 60 11 60 61v246c0 100 -54 163 -137 163c-99 0 -167 -92 -167 -167v-242c0 -50 9 -61 60 -61h20v-8h-225v8h20c51 0 60 11 60 61v562c0 50 -9 60 -60 60h-20v9h145v-332c23 64 89 123 179 123c114 0 190 -67 190 -189v-233
c0 -50 9 -61 60 -61zM176 917l146 -122l-3 -6l-143 78l-143 -78l-4 6z" />
    <glyph glyph-name="dotlessi" unicode="&#x131;" horiz-adv-x="255" 
d="M225 8h20v-8h-225v8h20c51 0 60 11 60 61v346c0 50 -9 60 -60 60h-20v9h145v-415c0 -50 9 -61 60 -61z" />
    <glyph glyph-name="iacute" unicode="&#xed;" horiz-adv-x="255" 
d="M225 8h20v-8h-225v8h20c51 0 60 11 60 61v346c0 50 -9 60 -60 60h-20v9h145v-415c0 -50 9 -61 60 -61zM184 690c9 -11 5 -25 -19 -40s-130 -76 -130 -76l-3 4s87 86 109 105c21 19 34 19 43 7z" />
    <glyph glyph-name="ibreve" unicode="&#x12d;" horiz-adv-x="255" 
d="M225 8h20v-8h-225v8h20c51 0 60 11 60 61v346c0 50 -9 60 -60 60h-20v9h145v-415c0 -50 9 -61 60 -61zM227 708h7c-2 -51 -44 -108 -112 -108s-110 57 -112 108h7c12 -41 45 -65 105 -65s92 24 105 65z" />
    <glyph glyph-name="icircumflex" unicode="&#xee;" horiz-adv-x="255" 
d="M225 8h20v-8h-225v8h20c51 0 60 11 60 61v346c0 50 -9 60 -60 60h-20v9h145v-415c0 -50 9 -61 60 -61zM123 713l146 -122l-3 -6l-143 78l-143 -78l-4 6z" />
    <glyph glyph-name="idieresis" unicode="&#xef;" horiz-adv-x="255" 
d="M225 8h20v-8h-225v8h20c51 0 60 11 60 61v346c0 50 -9 60 -60 60h-20v9h145v-415c0 -50 9 -61 60 -61zM46 700c28 0 50 -22 50 -49s-22 -49 -50 -49s-51 22 -51 49s23 49 51 49zM200 700c28 0 51 -22 51 -49s-23 -49 -51 -49s-50 22 -50 49s22 49 50 49z" />
    <glyph glyph-name="igrave" unicode="&#xec;" horiz-adv-x="255" 
d="M225 8h20v-8h-225v8h20c51 0 60 11 60 61v346c0 50 -9 60 -60 60h-20v9h145v-415c0 -50 9 -61 60 -61zM94 683c21 -19 109 -105 109 -105l-3 -4s-106 61 -130 76s-28 29 -19 40c9 12 22 12 43 -7z" />
    <glyph glyph-name="imacron" unicode="&#x12b;" horiz-adv-x="255" 
d="M225 8h20v-8h-225v8h20c51 0 60 11 60 61v346c0 50 -9 60 -60 60h-20v9h145v-415c0 -50 9 -61 60 -61zM-48 662h341v-12h-341v12z" />
    <glyph glyph-name="itilde" unicode="&#x129;" horiz-adv-x="255" 
d="M226 8h20v-8h-225v8h20c51 0 60 11 60 61v346c0 50 -9 60 -60 60h-20v9h145v-415c0 -50 9 -61 60 -61zM272 707l8 -2c-13 -43 -56 -87 -97 -87s-106 37 -145 41c-29 3 -45 -4 -62 -48l-9 3s16 45 42 63c25 18 61 32 139 4c78 -27 112 -17 124 26z" />
    <glyph glyph-name="ij" unicode="&#x133;" horiz-adv-x="494" 
d="M225 8h20v-8h-225v8h20c51 0 60 11 60 61v346c0 50 -9 60 -60 60h-20v9h145v-415c0 -50 9 -61 60 -61zM127 585c-26 0 -46 20 -46 46c0 25 20 46 46 46c25 0 46 -21 46 -46c0 -26 -21 -46 -46 -46zM272 484h144v-467c0 -209 -96 -250 -141 -263c-29 -8 -81 -12 -114 -6
c-24 4 -47 14 -45 33c1 23 20 26 44 18c22 -8 67 -44 112 -36c52 10 80 55 80 254v398c0 50 -9 60 -60 60h-20v9zM378 585c-25 0 -46 20 -46 46c0 25 21 46 46 46c26 0 46 -21 46 -46c0 -26 -20 -46 -46 -46z" />
    <glyph glyph-name="jcircumflex" unicode="&#x135;" horiz-adv-x="271" 
d="M57 484h144v-467c0 -209 -96 -250 -141 -263c-29 -8 -81 -12 -114 -6c-24 4 -47 14 -45 33c1 23 20 26 44 18c22 -8 67 -44 112 -36c52 10 80 55 80 254v398c0 50 -9 60 -60 60h-20v9zM55 713l146 -122l-3 -6l-143 78l-143 -78l-4 6z" />
    <glyph glyph-name="kcommaaccent" unicode="&#x137;" horiz-adv-x="588" 
d="M563 8h15v-8h-104c-28 0 -44 18 -59 38c-13 20 -144 213 -163 240l-87 -84v-125c0 -50 9 -61 60 -61h20v-8h-225v8h20c51 0 60 11 60 61v562c0 50 -9 60 -60 60h-20v9h145v-494l225 216c30 30 31 53 -16 53h-20v9h172v-9h-20c-50 0 -75 -25 -112 -60l-99 -96l171 -250
c25 -35 58 -61 97 -61zM297 -64c26 0 43 -19 44 -43c4 -58 -28 -113 -72 -159l-6 6c34 31 70 99 38 106c-28 6 -49 19 -49 47c0 24 20 43 45 43z" />
    <glyph glyph-name="kgreenlandic" unicode="&#x138;" horiz-adv-x="588" 
d="M563 8h15v-8h-104c-28 0 -44 18 -59 38c-13 20 -144 213 -163 240l-87 -84v-125c0 -50 9 -61 60 -61h20v-8h-225v8h20c51 0 60 11 60 61v376c0 50 -9 60 -60 60h-20v9h145v-308l225 216c30 30 31 53 -16 53h-20v9h172v-9h-20c-50 0 -75 -25 -112 -60l-99 -96l171 -250
c25 -35 58 -61 97 -61z" />
    <glyph glyph-name="lacute" unicode="&#x13a;" horiz-adv-x="254" 
d="M224 8h20v-8h-224v8h20c50 0 60 11 60 61v562c0 50 -10 60 -60 60h-20v9h144v-631c0 -50 9 -61 60 -61zM179 905c9 -11 5 -25 -19 -40s-130 -76 -130 -76l-3 4s87 86 109 105c21 19 34 19 43 7z" />
    <glyph glyph-name="lcaron" unicode="&#x13e;" horiz-adv-x="356" 
d="M224 8h20v-8h-224v8h20c50 0 60 11 60 61v562c0 50 -10 60 -60 60h-20v9h144v-631c0 -50 9 -61 60 -61zM294 706c30 0 49 -22 51 -49c5 -66 -32 -129 -83 -181l-6 7c38 35 80 113 44 121c-32 6 -56 21 -56 53c0 27 22 49 50 49z" />
    <glyph glyph-name="lcommaaccent" unicode="&#x13c;" horiz-adv-x="254" 
d="M224 8h20v-8h-224v8h20c50 0 60 11 60 61v562c0 50 -10 60 -60 60h-20v9h144v-631c0 -50 9 -61 60 -61zM130 -64c26 0 43 -19 44 -43c4 -58 -28 -113 -72 -159l-6 6c34 31 70 99 38 106c-28 6 -49 19 -49 47c0 24 20 43 45 43z" />
    <glyph glyph-name="ldot" unicode="&#x140;" horiz-adv-x="372" 
d="M224 8h20v-8h-224v8h20c50 0 60 11 60 61v562c0 50 -10 60 -60 60h-20v9h144v-631c0 -50 9 -61 60 -61zM321 376c28 0 51 -22 51 -49s-23 -49 -51 -49s-50 22 -50 49s22 49 50 49z" />
    <glyph glyph-name="nacute" unicode="&#x144;" horiz-adv-x="623" 
d="M593 8h20v-8h-224v8h20c50 0 60 11 60 61v246c0 100 -54 163 -137 163c-100 0 -167 -92 -167 -167v-242c0 -50 9 -61 59 -61h20v-8h-224v8h20c51 0 60 11 60 61v345c0 51 -9 61 -60 61h-20v9h145v-116c22 64 89 123 178 123c115 0 190 -67 190 -189v-233
c0 -50 9 -61 60 -61zM388 690c9 -11 5 -25 -19 -40s-130 -76 -130 -76l-3 4s87 86 109 105c21 19 34 19 43 7z" />
    <glyph glyph-name="napostrophe" unicode="&#x149;" horiz-adv-x="738" 
d="M708 8h20v-8h-224v8h20c50 0 60 11 60 61v246c0 100 -54 163 -137 163c-100 0 -167 -92 -167 -167v-242c0 -50 9 -61 59 -61h20v-8h-224v8h20c51 0 60 11 60 61v345c0 51 -9 61 -60 61h-20v9h145v-116c22 64 89 123 178 123c115 0 190 -67 190 -189v-233
c0 -50 9 -61 60 -61zM65 707c26 0 43 -19 44 -43c4 -58 -28 -113 -72 -159l-6 6c34 31 70 99 38 106c-28 6 -49 19 -49 47c0 24 20 43 45 43z" />
    <glyph glyph-name="ncaron" unicode="&#x148;" horiz-adv-x="623" 
d="M593 8h20v-8h-224v8h20c50 0 60 11 60 61v246c0 100 -54 163 -137 163c-100 0 -167 -92 -167 -167v-242c0 -50 9 -61 59 -61h20v-8h-224v8h20c51 0 60 11 60 61v345c0 51 -9 61 -60 61h-20v9h145v-116c22 64 89 123 178 123c115 0 190 -67 190 -189v-233
c0 -50 9 -61 60 -61zM459 710l4 -6l-147 -122l-146 122l3 6l143 -78z" />
    <glyph glyph-name="ncommaaccent" unicode="&#x146;" horiz-adv-x="623" 
d="M593 8h20v-8h-224v8h20c50 0 60 11 60 61v246c0 100 -54 163 -137 163c-100 0 -167 -92 -167 -167v-242c0 -50 9 -61 59 -61h20v-8h-224v8h20c51 0 60 11 60 61v345c0 51 -9 61 -60 61h-20v9h145v-116c22 64 89 123 178 123c115 0 190 -67 190 -189v-233
c0 -50 9 -61 60 -61zM315 -64c26 0 43 -19 44 -43c4 -58 -28 -113 -72 -159l-6 6c34 31 70 99 38 106c-28 6 -49 19 -49 47c0 24 20 43 45 43z" />
    <glyph glyph-name="ntilde" unicode="&#xf1;" horiz-adv-x="623" 
d="M593 8h20v-8h-224v8h20c50 0 60 11 60 61v246c0 100 -54 163 -137 163c-100 0 -167 -92 -167 -167v-242c0 -50 9 -61 59 -61h20v-8h-224v8h20c51 0 60 11 60 61v345c0 51 -9 61 -60 61h-20v9h145v-116c22 64 89 123 178 123c115 0 190 -67 190 -189v-233
c0 -50 9 -61 60 -61zM475 707l8 -2c-13 -43 -56 -87 -97 -87s-106 37 -145 41c-29 3 -45 -4 -62 -48l-9 3s16 45 42 63c25 18 61 32 139 4c78 -27 112 -17 124 26z" />
    <glyph glyph-name="oacute" unicode="&#xf3;" horiz-adv-x="572" 
d="M291 491c154 0 261 -104 261 -249s-107 -248 -261 -248c-155 0 -261 103 -261 248s106 249 261 249zM291 3c124 0 197 96 197 239s-73 239 -197 239s-197 -96 -197 -239s73 -239 197 -239zM362 690c9 -11 5 -25 -19 -40s-130 -76 -130 -76l-3 4s87 86 109 105
c21 19 34 19 43 7z" />
    <glyph glyph-name="obreve" unicode="&#x14f;" horiz-adv-x="572" 
d="M291 491c154 0 261 -104 261 -249s-107 -248 -261 -248c-155 0 -261 103 -261 248s106 249 261 249zM291 3c124 0 197 96 197 239s-73 239 -197 239s-197 -96 -197 -239s73 -239 197 -239zM396 708h7c-2 -51 -44 -108 -112 -108s-110 57 -112 108h7
c12 -41 45 -65 105 -65s92 24 105 65z" />
    <glyph glyph-name="ocircumflex" unicode="&#xf4;" horiz-adv-x="572" 
d="M291 491c154 0 261 -104 261 -249s-107 -248 -261 -248c-155 0 -261 103 -261 248s106 249 261 249zM291 3c124 0 197 96 197 239s-73 239 -197 239s-197 -96 -197 -239s73 -239 197 -239zM291 713l146 -122l-3 -6l-143 78l-143 -78l-4 6z" />
    <glyph glyph-name="odieresis" unicode="&#xf6;" horiz-adv-x="572" 
d="M291 491c154 0 261 -104 261 -249s-107 -248 -261 -248c-155 0 -261 103 -261 248s106 249 261 249zM291 3c124 0 197 96 197 239s-73 239 -197 239s-197 -96 -197 -239s73 -239 197 -239zM214 700c28 0 50 -22 50 -49s-22 -49 -50 -49s-51 22 -51 49s23 49 51 49z
M368 700c28 0 51 -22 51 -49s-23 -49 -51 -49s-50 22 -50 49s22 49 50 49z" />
    <glyph glyph-name="ograve" unicode="&#xf2;" horiz-adv-x="572" 
d="M291 491c154 0 261 -104 261 -249s-107 -248 -261 -248c-155 0 -261 103 -261 248s106 249 261 249zM291 3c124 0 197 96 197 239s-73 239 -197 239s-197 -96 -197 -239s73 -239 197 -239zM262 683c21 -19 109 -105 109 -105l-3 -4s-106 61 -130 76s-28 29 -19 40
c9 12 22 12 43 -7z" />
    <glyph glyph-name="ohungarumlaut" unicode="&#x151;" horiz-adv-x="572" 
d="M291 491c154 0 261 -104 261 -249s-107 -248 -261 -248c-155 0 -261 103 -261 248s106 249 261 249zM291 3c124 0 197 96 197 239s-73 239 -197 239s-197 -96 -197 -239s73 -239 197 -239zM315 707c11 -9 11 -23 -8 -43c-20 -21 -108 -107 -108 -107l-3 3s63 105 78 129
c16 24 29 27 41 18zM433 707c12 -9 12 -23 -8 -43c-19 -21 -107 -107 -107 -107l-3 3s63 105 78 129c16 24 29 27 40 18z" />
    <glyph glyph-name="omacron" unicode="&#x14d;" horiz-adv-x="572" 
d="M291 491c154 0 261 -104 261 -249s-107 -248 -261 -248c-155 0 -261 103 -261 248s106 249 261 249zM291 3c124 0 197 96 197 239s-73 239 -197 239s-197 -96 -197 -239s73 -239 197 -239zM120 662h341v-12h-341v12z" />
    <glyph glyph-name="oslashacute" unicode="&#x1ff;" horiz-adv-x="572" 
d="M478 421c47 -44 74 -106 74 -179c0 -145 -107 -248 -261 -248c-72 0 -134 22 -179 61l-74 -74l-8 8l73 73c-46 44 -73 107 -73 180c0 145 106 249 261 249c72 0 133 -24 179 -62l74 74l8 -8zM94 242c0 -60 13 -112 37 -152l313 313c-33 49 -86 78 -153 78
c-124 0 -197 -96 -197 -239zM291 3c124 0 197 96 197 239c0 60 -13 112 -37 152l-314 -314c34 -49 86 -77 154 -77zM362 690c9 -11 5 -25 -19 -40s-130 -76 -130 -76l-3 4s87 86 109 105c21 19 34 19 43 7z" />
    <glyph glyph-name="otilde" unicode="&#xf5;" horiz-adv-x="572" 
d="M291 491c154 0 261 -104 261 -249s-107 -248 -261 -248c-155 0 -261 103 -261 248s106 249 261 249zM291 3c124 0 197 96 197 239s-73 239 -197 239s-197 -96 -197 -239s73 -239 197 -239zM439 707l8 -2c-13 -43 -56 -87 -97 -87s-106 37 -145 41c-29 3 -45 -4 -62 -48
l-9 3s16 45 42 63c25 18 61 32 139 4c78 -27 112 -17 124 26z" />
    <glyph glyph-name="racute" unicode="&#x155;" horiz-adv-x="432" 
d="M370 487c30 -4 46 -14 40 -37c-4 -19 -30 -26 -61 -12c-47 23 -88 39 -130 -1c-38 -35 -55 -106 -55 -154v-214c0 -50 9 -61 60 -61h55v-8h-259v8h20c50 0 60 11 60 61v345c0 51 -10 61 -60 61h-20v9h144v-142c10 36 26 73 48 103c31 41 85 51 158 42zM307 690
c9 -11 5 -25 -19 -40s-130 -76 -130 -76l-3 4s87 86 109 105c21 19 34 19 43 7z" />
    <glyph glyph-name="rcaron" unicode="&#x159;" horiz-adv-x="432" 
d="M370 487c30 -4 46 -14 40 -37c-4 -19 -30 -26 -61 -12c-47 23 -88 39 -130 -1c-38 -35 -55 -106 -55 -154v-214c0 -50 9 -61 60 -61h55v-8h-259v8h20c50 0 60 11 60 61v345c0 51 -10 61 -60 61h-20v9h144v-142c10 36 26 73 48 103c31 41 85 51 158 42zM358 710l4 -6
l-147 -122l-146 122l3 6l143 -78z" />
    <glyph glyph-name="rcommaaccent" unicode="&#x157;" horiz-adv-x="432" 
d="M370 487c30 -4 46 -14 40 -37c-4 -19 -30 -26 -61 -12c-47 23 -88 39 -130 -1c-38 -35 -55 -106 -55 -154v-214c0 -50 9 -61 60 -61h55v-8h-259v8h20c50 0 60 11 60 61v345c0 51 -10 61 -60 61h-20v9h144v-142c10 36 26 73 48 103c31 41 85 51 158 42zM131 -64
c26 0 43 -19 44 -43c4 -58 -28 -113 -72 -159l-6 6c34 31 70 99 38 106c-28 6 -49 19 -49 47c0 24 20 43 45 43z" />
    <glyph glyph-name="sacute" unicode="&#x15b;" horiz-adv-x="442" 
d="M230 285c77 -33 202 -65 191 -164c-10 -88 -95 -130 -189 -127c-107 3 -152 60 -178 56c-14 -3 -17 -23 -17 -44v-15h-7v201h7v-38c0 -100 111 -146 183 -149c77 -4 152 26 156 90c4 62 -61 88 -157 125c-108 42 -173 84 -159 169c15 88 131 103 163 102
c101 -3 126 -43 145 -44c12 0 14 14 14 28v19h6v-201h-6v38c0 92 -41 145 -160 149c-53 2 -122 -28 -121 -90c0 -56 62 -76 129 -105zM307 690c9 -11 5 -25 -19 -40s-130 -76 -130 -76l-3 4s87 86 109 105c21 19 34 19 43 7z" />
    <glyph glyph-name="scaron" unicode="&#x161;" horiz-adv-x="442" 
d="M230 285c77 -33 202 -65 191 -164c-10 -88 -95 -130 -189 -127c-107 3 -152 60 -178 56c-14 -3 -17 -23 -17 -44v-15h-7v201h7v-38c0 -100 111 -146 183 -149c77 -4 152 26 156 90c4 62 -61 88 -157 125c-108 42 -173 84 -159 169c15 88 131 103 163 102
c101 -3 126 -43 145 -44c12 0 14 14 14 28v19h6v-201h-6v38c0 92 -41 145 -160 149c-53 2 -122 -28 -121 -90c0 -56 62 -76 129 -105zM378 710l4 -6l-147 -122l-146 122l3 6l143 -78z" />
    <glyph glyph-name="scircumflex" unicode="&#x15d;" horiz-adv-x="442" 
d="M230 285c77 -33 202 -65 191 -164c-10 -88 -95 -130 -189 -127c-107 3 -152 60 -178 56c-14 -3 -17 -23 -17 -44v-15h-7v201h7v-38c0 -100 111 -146 183 -149c77 -4 152 26 156 90c4 62 -61 88 -157 125c-108 42 -173 84 -159 169c15 88 131 103 163 102
c101 -3 126 -43 145 -44c12 0 14 14 14 28v19h6v-201h-6v38c0 92 -41 145 -160 149c-53 2 -122 -28 -121 -90c0 -56 62 -76 129 -105zM236 713l146 -122l-3 -6l-143 78l-143 -78l-4 6z" />
    <glyph glyph-name="scommaaccent" unicode="&#x219;" horiz-adv-x="442" 
d="M230 285c77 -33 202 -65 191 -164c-10 -88 -95 -130 -189 -127c-107 3 -152 60 -178 56c-14 -3 -17 -23 -17 -44v-15h-7v201h7v-38c0 -100 111 -146 183 -149c77 -4 152 26 156 90c4 62 -61 88 -157 125c-108 42 -173 84 -159 169c15 88 131 103 163 102
c101 -3 126 -43 145 -44c12 0 14 14 14 28v19h6v-201h-6v38c0 92 -41 145 -160 149c-53 2 -122 -28 -121 -90c0 -56 62 -76 129 -105zM224 -64c26 0 43 -19 44 -43c4 -58 -28 -113 -72 -159l-6 6c34 31 70 99 38 106c-28 6 -49 19 -49 47c0 24 20 43 45 43z" />
    <glyph glyph-name="tcaron" unicode="&#x165;" horiz-adv-x="372" 
d="M347 88l5 -5c-16 -19 -61 -89 -126 -89c-89 0 -131 44 -131 148v333h-85v9c75 0 126 73 143 155h7v-155h149v-9h-149v-350c0 -96 36 -117 77 -117c57 0 90 55 110 80zM292 775c26 0 43 -19 44 -43c4 -58 -28 -113 -72 -159l-6 6c34 31 70 99 38 106c-28 6 -49 19 -49 47
c0 24 20 43 45 43z" />
    <glyph glyph-name="tcommaaccent" unicode="&#x163;" horiz-adv-x="372" 
d="M347 88l5 -5c-16 -19 -61 -89 -126 -89c-89 0 -131 44 -131 148v333h-85v9c75 0 126 73 143 155h7v-155h149v-9h-149v-350c0 -96 36 -117 77 -117c57 0 90 55 110 80zM194 -64c26 0 43 -19 44 -43c4 -58 -28 -113 -72 -159l-6 6c34 31 70 99 38 106c-28 6 -49 19 -49 47
c0 24 20 43 45 43z" />
    <glyph glyph-name="uacute" unicode="&#xfa;" horiz-adv-x="613" 
d="M583 8h20v-8h-145v111c-19 -62 -74 -117 -161 -117c-118 0 -207 59 -207 187v233c0 51 -9 61 -60 61h-20v9h144v-315c0 -106 66 -163 156 -163c100 0 148 91 148 167v241c0 51 -9 61 -59 61h-20v9h144v-415c0 -50 9 -61 60 -61zM378 690c9 -11 5 -25 -19 -40
s-130 -76 -130 -76l-3 4s87 86 109 105c21 19 34 19 43 7z" />
    <glyph glyph-name="ubreve" unicode="&#x16d;" horiz-adv-x="613" 
d="M583 8h20v-8h-145v111c-19 -62 -74 -117 -161 -117c-118 0 -207 59 -207 187v233c0 51 -9 61 -60 61h-20v9h144v-315c0 -106 66 -163 156 -163c100 0 148 91 148 167v241c0 51 -9 61 -59 61h-20v9h144v-415c0 -50 9 -61 60 -61zM401 708h7c-2 -51 -44 -108 -112 -108
s-110 57 -112 108h7c12 -41 45 -65 105 -65s92 24 105 65z" />
    <glyph glyph-name="ucircumflex" unicode="&#xfb;" horiz-adv-x="613" 
d="M583 8h20v-8h-145v111c-19 -62 -74 -117 -161 -117c-118 0 -207 59 -207 187v233c0 51 -9 61 -60 61h-20v9h144v-315c0 -106 66 -163 156 -163c100 0 148 91 148 167v241c0 51 -9 61 -59 61h-20v9h144v-415c0 -50 9 -61 60 -61zM297 713l146 -122l-3 -6l-143 78l-143 -78
l-4 6z" />
    <glyph glyph-name="udieresis" unicode="&#xfc;" horiz-adv-x="613" 
d="M583 8h20v-8h-145v111c-19 -62 -74 -117 -161 -117c-118 0 -207 59 -207 187v233c0 51 -9 61 -60 61h-20v9h144v-315c0 -106 66 -163 156 -163c100 0 148 91 148 167v241c0 51 -9 61 -59 61h-20v9h144v-415c0 -50 9 -61 60 -61zM219 700c28 0 50 -22 50 -49
s-22 -49 -50 -49s-51 22 -51 49s23 49 51 49zM373 700c28 0 51 -22 51 -49s-23 -49 -51 -49s-50 22 -50 49s22 49 50 49z" />
    <glyph glyph-name="uhungarumlaut" unicode="&#x171;" horiz-adv-x="613" 
d="M583 8h20v-8h-145v111c-19 -62 -74 -117 -161 -117c-118 0 -207 59 -207 187v233c0 51 -9 61 -60 61h-20v9h144v-315c0 -106 66 -163 156 -163c100 0 148 91 148 167v241c0 51 -9 61 -59 61h-20v9h144v-415c0 -50 9 -61 60 -61zM321 707c11 -9 11 -23 -8 -43
c-20 -21 -108 -107 -108 -107l-3 3s63 105 78 129c16 24 29 27 41 18zM439 707c12 -9 12 -23 -8 -43c-19 -21 -107 -107 -107 -107l-3 3s63 105 78 129c16 24 29 27 40 18z" />
    <glyph glyph-name="ugrave" unicode="&#xf9;" horiz-adv-x="613" 
d="M583 8h20v-8h-145v111c-19 -62 -74 -117 -161 -117c-118 0 -207 59 -207 187v233c0 51 -9 61 -60 61h-20v9h144v-315c0 -106 66 -163 156 -163c100 0 148 91 148 167v241c0 51 -9 61 -59 61h-20v9h144v-415c0 -50 9 -61 60 -61zM258 683c21 -19 109 -105 109 -105l-3 -4
s-106 61 -130 76s-28 29 -19 40c9 12 22 12 43 -7z" />
    <glyph glyph-name="umacron" unicode="&#x16b;" horiz-adv-x="613" 
d="M583 8h20v-8h-145v111c-19 -62 -74 -117 -161 -117c-118 0 -207 59 -207 187v233c0 51 -9 61 -60 61h-20v9h144v-315c0 -106 66 -163 156 -163c100 0 148 91 148 167v241c0 51 -9 61 -59 61h-20v9h144v-415c0 -50 9 -61 60 -61zM126 662h341v-12h-341v12z" />
    <glyph glyph-name="uring" unicode="&#x16f;" horiz-adv-x="613" 
d="M583 8h20v-8h-145v111c-19 -62 -74 -117 -161 -117c-118 0 -207 59 -207 187v233c0 51 -9 61 -60 61h-20v9h144v-315c0 -106 66 -163 156 -163c100 0 148 91 148 167v241c0 51 -9 61 -59 61h-20v9h144v-415c0 -50 9 -61 60 -61zM297 752c48 0 94 -35 94 -88
c0 -52 -46 -87 -94 -87c-49 0 -95 35 -95 87c0 53 46 88 95 88zM297 583c34 0 58 31 58 81s-24 82 -58 82c-35 0 -59 -32 -59 -82s24 -81 59 -81z" />
    <glyph glyph-name="utilde" unicode="&#x169;" horiz-adv-x="613" 
d="M583 8h20v-8h-145v111c-19 -62 -74 -117 -161 -117c-118 0 -207 59 -207 187v233c0 51 -9 61 -60 61h-20v9h144v-315c0 -106 66 -163 156 -163c100 0 148 91 148 167v241c0 51 -9 61 -59 61h-20v9h144v-415c0 -50 9 -61 60 -61zM445 707l8 -2c-13 -43 -56 -87 -97 -87
s-106 37 -145 41c-29 3 -45 -4 -62 -48l-9 3s16 45 42 63c25 18 61 32 139 4c78 -27 112 -17 124 26z" />
    <glyph glyph-name="wacute" unicode="&#x1e83;" horiz-adv-x="806" 
d="M655 484h141v-9h-7c-46 0 -59 -20 -75 -60l-160 -415h-12l-133 302l-128 -302h-11l-192 414c-22 48 -36 61 -87 61h-11v9h208v-9h-15c-50 0 -50 -15 -29 -60l155 -347l104 246l-44 100c-21 48 -35 61 -86 61h-11v9h208v-9h-15c-51 0 -51 -15 -31 -60l147 -342l132 342
c19 48 5 60 -46 60h-2v9zM429 690c9 -11 5 -25 -19 -40s-130 -76 -130 -76l-3 4s87 86 109 105c21 19 34 19 43 7z" />
    <glyph glyph-name="wcircumflex" unicode="&#x175;" horiz-adv-x="806" 
d="M655 484h141v-9h-7c-46 0 -59 -20 -75 -60l-160 -415h-12l-133 302l-128 -302h-11l-192 414c-22 48 -36 61 -87 61h-11v9h208v-9h-15c-50 0 -50 -15 -29 -60l155 -347l104 246l-44 100c-21 48 -35 61 -86 61h-11v9h208v-9h-15c-51 0 -51 -15 -31 -60l147 -342l132 342
c19 48 5 60 -46 60h-2v9zM378 713l146 -122l-3 -6l-143 78l-143 -78l-4 6z" />
    <glyph glyph-name="wdieresis" unicode="&#x1e85;" horiz-adv-x="806" 
d="M655 484h141v-9h-7c-46 0 -59 -20 -75 -60l-160 -415h-12l-133 302l-128 -302h-11l-192 414c-22 48 -36 61 -87 61h-11v9h208v-9h-15c-50 0 -50 -15 -29 -60l155 -347l104 246l-44 100c-21 48 -35 61 -86 61h-11v9h208v-9h-15c-51 0 -51 -15 -31 -60l147 -342l132 342
c19 48 5 60 -46 60h-2v9zM301 700c28 0 50 -22 50 -49s-22 -49 -50 -49s-51 22 -51 49s23 49 51 49zM455 700c28 0 51 -22 51 -49s-23 -49 -51 -49s-50 22 -50 49s22 49 50 49z" />
    <glyph glyph-name="wgrave" unicode="&#x1e81;" horiz-adv-x="806" 
d="M655 484h141v-9h-7c-46 0 -59 -20 -75 -60l-160 -415h-12l-133 302l-128 -302h-11l-192 414c-22 48 -36 61 -87 61h-11v9h208v-9h-15c-50 0 -50 -15 -29 -60l155 -347l104 246l-44 100c-21 48 -35 61 -86 61h-11v9h208v-9h-15c-51 0 -51 -15 -31 -60l147 -342l132 342
c19 48 5 60 -46 60h-2v9zM379 683c21 -19 109 -105 109 -105l-3 -4s-106 61 -130 76s-28 29 -19 40c9 12 22 12 43 -7z" />
    <glyph glyph-name="yacute" unicode="&#xfd;" horiz-adv-x="538" 
d="M387 484h141v-9h-8c-45 0 -60 -20 -77 -61l-175 -414c-83 -189 -164 -219 -248 -209c-25 3 -41 10 -39 30s18 22 43 19c100 -14 155 -11 232 160l-176 414c-20 49 -34 61 -85 61h-11v9h208v-9h-14c-51 0 -52 -14 -32 -61l144 -337l142 337c21 50 8 61 -43 61h-2v9z
M355 690c9 -11 5 -25 -19 -40s-130 -76 -130 -76l-3 4s87 86 109 105c21 19 34 19 43 7z" />
    <glyph glyph-name="ycircumflex" unicode="&#x177;" horiz-adv-x="538" 
d="M387 484h141v-9h-8c-45 0 -60 -20 -77 -61l-175 -414c-83 -189 -164 -219 -248 -209c-25 3 -41 10 -39 30s18 22 43 19c100 -14 155 -11 232 160l-176 414c-20 49 -34 61 -85 61h-11v9h208v-9h-14c-51 0 -52 -14 -32 -61l144 -337l142 337c21 50 8 61 -43 61h-2v9z
M294 713l146 -122l-3 -6l-143 78l-143 -78l-4 6z" />
    <glyph glyph-name="ydieresis" unicode="&#xff;" horiz-adv-x="538" 
d="M387 484h141v-9h-8c-45 0 -60 -20 -77 -61l-175 -414c-83 -189 -164 -219 -248 -209c-25 3 -41 10 -39 30s18 22 43 19c100 -14 155 -11 232 160l-176 414c-20 49 -34 61 -85 61h-11v9h208v-9h-14c-51 0 -52 -14 -32 -61l144 -337l142 337c21 50 8 61 -43 61h-2v9z
M207 700c28 0 50 -22 50 -49s-22 -49 -50 -49s-51 22 -51 49s23 49 51 49zM361 700c28 0 51 -22 51 -49s-23 -49 -51 -49s-50 22 -50 49s22 49 50 49z" />
    <glyph glyph-name="ygrave" unicode="&#x1ef3;" horiz-adv-x="538" 
d="M387 484h141v-9h-8c-45 0 -60 -20 -77 -61l-175 -414c-83 -189 -164 -219 -248 -209c-25 3 -41 10 -39 30s18 22 43 19c100 -14 155 -11 232 160l-176 414c-20 49 -34 61 -85 61h-11v9h208v-9h-14c-51 0 -52 -14 -32 -61l144 -337l142 337c21 50 8 61 -43 61h-2v9z
M255 683c21 -19 109 -105 109 -105l-3 -4s-106 61 -130 76s-28 29 -19 40c9 12 22 12 43 -7z" />
    <glyph glyph-name="zacute" unicode="&#x17a;" horiz-adv-x="460" 
d="M421 173h9v-173h-400v11l318 461h-240c-50 0 -61 -35 -61 -86v-75h-8v173h373v-12l-318 -461h266c51 0 61 36 61 87v75zM311 690c9 -11 5 -25 -19 -40s-130 -76 -130 -76l-3 4s87 86 109 105c21 19 34 19 43 7z" />
    <glyph glyph-name="zcaron" unicode="&#x17e;" horiz-adv-x="460" 
d="M421 173h9v-173h-400v11l318 461h-240c-50 0 -61 -35 -61 -86v-75h-8v173h373v-12l-318 -461h266c51 0 61 36 61 87v75zM382 710l4 -6l-147 -122l-146 122l3 6l143 -78z" />
    <glyph glyph-name="zdotaccent" unicode="&#x17c;" horiz-adv-x="460" 
d="M421 173h9v-173h-400v11l318 461h-240c-50 0 -61 -35 -61 -86v-75h-8v173h373v-12l-318 -461h266c51 0 61 36 61 87v75zM239 700c28 0 51 -22 51 -49s-23 -49 -51 -49s-50 22 -50 49s22 49 50 49z" />
    <glyph glyph-name="A" unicode="A" horiz-adv-x="737" 
d="M716 8h11v-8h-216v8h20c51 0 48 13 27 61l-69 164h-309l-64 -164c-19 -50 -8 -61 43 -61h20v-8h-169v8h17c45 0 61 19 78 61l244 631h12l267 -631c22 -49 37 -61 88 -61zM185 245h299l-157 368z" />
    </font>
</defs>
</svg>
